<?xml version="1.0" encoding="UTF-8"?> <!-- Generator: Adobe Illustrator 23.1.0, SVG Export Plug-In . SVG Version: 6.00 Build 0) --> <svg xmlns="http://www.w3.org/2000/svg" xmlns:xlink="http://www.w3.org/1999/xlink" id="Layer_1" x="0px" y="0px" viewBox="0 0 400 245" style="enable-background:new 0 0 400 245;" xml:space="preserve"> <style type="text/css"> .st0{fill:#FFFFFF;} .st1{clip-path:url(#SVGID_2_);fill:#D63D16;} .st2{fill:#EBF7FE;} .st3{fill-rule:evenodd;clip-rule:evenodd;fill:url(#SVGID_3_);} .st4{fill-rule:evenodd;clip-rule:evenodd;fill:url(#SVGID_4_);} .st5{fill-rule:evenodd;clip-rule:evenodd;fill:url(#SVGID_5_);} .st6{fill-rule:evenodd;clip-rule:evenodd;} .st7{fill:#009FE3;} .st8{fill:#B8A40C;} .st9{fill:#D63D16;} </style> <g> <g> <path d="M143.4,232.9c-0.5-0.3-1-0.6-1.6-0.8c-0.5-0.2-1-0.4-1.5-0.7c-0.4-0.2-0.8-0.5-1.1-0.8c-0.2-0.3-0.4-0.7-0.4-1.2 c0-0.3,0-0.6,0.2-0.9c0.1-0.3,0.2-0.5,0.4-0.7c0.2-0.2,0.4-0.3,0.7-0.4c0.5-0.2,1.2-0.2,1.6,0c0.2,0.1,0.4,0.2,0.6,0.4 c0.2,0.2,0.3,0.3,0.4,0.5c0.1,0.2,0.2,0.4,0.2,0.6l0.1,0.3h1l0.1-0.4c0.1-0.4,0.2-0.7,0.2-1c0.1-0.2,0.2-0.5,0.3-0.7l0.2-0.4 l-0.3-0.2c-0.4-0.4-0.9-0.7-1.5-0.8c-1.1-0.4-2.7-0.4-3.9,0.1c-0.6,0.2-1.1,0.5-1.5,0.9c-0.4,0.4-0.8,0.9-1,1.4 c-0.2,0.5-0.3,1.1-0.3,1.8c0,0.9,0.2,1.7,0.6,2.2c0.4,0.5,0.8,1,1.3,1.3c0.5,0.3,1.1,0.6,1.6,0.8c0.5,0.2,1,0.4,1.5,0.7 c0.4,0.2,0.8,0.5,1.1,0.8c0.2,0.3,0.4,0.7,0.4,1.2c0,0.4-0.1,0.7-0.2,1c-0.1,0.3-0.3,0.6-0.5,0.8c-0.2,0.2-0.5,0.4-0.8,0.5 c-0.6,0.3-1.4,0.3-2,0c-0.3-0.1-0.6-0.3-0.8-0.4c-0.2-0.2-0.4-0.4-0.6-0.6c-0.2-0.2-0.3-0.5-0.4-0.7l-0.1-0.3h-1l0,0.4 c0,0.4-0.1,0.7-0.1,1c0,0.2-0.1,0.5-0.2,0.8l-0.1,0.3l0.3,0.2c0.4,0.3,0.9,0.6,1.4,0.9c0.6,0.3,1.3,0.4,2.2,0.4 c0.8,0,1.6-0.1,2.3-0.4c0.7-0.3,1.3-0.6,1.8-1.1c0.5-0.5,0.8-1,1.1-1.7c0.2-0.6,0.4-1.3,0.4-2c0-0.9-0.2-1.6-0.6-2.1 C144.4,233.7,143.9,233.3,143.4,232.9z"></path> <path d="M166.4,225.8l-0.4-0.1l-0.2,0.4c-0.3,0.6-0.6,1.2-0.9,1.8c-0.3,0.6-0.6,1.3-1,1.9c-0.3,0.6-0.7,1.2-1,1.8 c-0.2,0.3-0.4,0.6-0.5,0.9c-0.6-1-1.1-2-1.6-2.9c-0.6-1.2-1.3-2.4-1.9-3.6l-0.2-0.3l-0.9,0.1c-0.3,0-0.7,0-1,0l-1.6-0.2l0.5,0.9 c0.1,0.2,0.3,0.6,0.6,1l3.8,6.5c0.2,0.4,0.4,0.7,0.5,0.9c0,1.1,0,2.1,0,3.1c0,1-0.1,1.9-0.1,2.6l-0.1,0.6l0.6-0.1 c0.6-0.1,1.3-0.1,1.9,0l0.6,0.1l0-0.6c0-0.3,0-0.7-0.1-1.1c0-0.5,0-1,0-1.6s0-1.1,0-1.7c0-0.5,0-1.1,0-1.5 c0.2-0.4,0.4-0.9,0.7-1.3c0.3-0.5,0.7-1.1,1-1.8c0.4-0.7,0.8-1.4,1.4-2.2c0.5-0.8,1.1-1.8,1.8-2.8l0.6-1l-1.1,0.2 C167.1,226,167.2,226,166.4,225.8z"></path> <path d="M192.1,227.8L192.1,227.8c-0.6-0.7-1.4-1.1-2.3-1.5c-1.3-0.5-3.1-0.6-4.8-0.5c-1,0.1-2,0.1-3,0c-0.5,0-1,0-1.5-0.1l-0.5,0 l0.1,3.3c0,0.9,0,1.8,0,2.7v3.6c0,0.9,0,1.8,0,2.7s-0.1,1.8-0.1,2.6l0,0.5l0.5,0c0.4,0,0.9,0,1.3,0h1.4c0.4,0,0.9,0,1.3,0 c1.3,0,2.6,0,4-0.4c0.9-0.3,1.8-0.7,2.6-1.3c0.8-0.6,1.4-1.5,1.9-2.5c0.5-1,0.8-2.3,0.8-3.7c0-1.1-0.1-2.1-0.4-3.1 C193.1,229.3,192.7,228.5,192.1,227.8z M190.3,236.5c-0.3,0.8-0.8,1.4-1.3,1.9c-0.5,0.4-1.1,0.8-1.8,0.9c-1.2,0.3-2.4,0.3-3.6,0.2 c-0.3,0-0.5,0-0.7-0.1c-0.1-1.3-0.1-2.7-0.1-4v-3.6c0-0.7,0-1.5,0-2.2c0-0.6,0-1.1,0.1-1.7c0.3,0,0.6-0.1,1-0.1 c1.2-0.1,2.7-0.1,3.9,0.2c0.6,0.2,1.2,0.4,1.6,0.8s0.8,1,1.1,1.7c0.3,0.7,0.4,1.7,0.4,2.8C190.8,234.6,190.6,235.6,190.3,236.5z"></path> <path d="M218,225.9c-0.2,0-0.3,0-0.6-0.1l-0.7-0.2l0,0.7c0.1,1.2,0.1,2.5,0.1,3.9c0,1.4,0,2.8,0,4.3v1.6c-0.4-0.4-0.9-0.9-1.3-1.5 l-2.6-2.9c-0.9-1-1.9-2.1-2.8-3.1l-2.8-3.1h-1.1l0,0.5c0,0.5,0,1.2,0,2.1c0,1,0,2.1,0,3.5c0,0.5,0,1,0,1.6l0,1.8 c0,0.6,0,1.2-0.1,1.8l-0.1,1.7c0,0.5-0.1,1-0.1,1.3c0,0.4-0.1,0.6-0.1,0.7l-0.1,0.7l0.7-0.1c0.4,0,0.9-0.1,1.3,0l0.6,0.1l-0.1-0.6 c0-0.1,0-0.3,0-0.6l-0.1-2.5c0-0.5,0-1,0-1.4l0-1.4c0-0.4,0-0.8,0-1.1c0-1.1,0-2,0-2.7c0-0.1,0-0.2,0-0.4c1.5,1.6,3,3.3,4.5,4.9 c1.8,1.9,3.4,3.9,5,5.7l0.1,0.2h1v-1.2c0-0.3,0-0.7,0-1.2l0-3c0-0.5,0-1,0-1.5v-1.3c0-0.4,0-0.9,0-1.6s0.1-1.3,0.1-2.1 c0-0.7,0.1-1.3,0.1-2c0-0.6,0.1-1.1,0.1-1.4l0.1-0.7l-0.7,0.2C218.3,225.9,218.1,225.9,218,225.9z"></path> <path d="M240.4,239.7l0.2-0.8l-0.8,0.2c-0.3,0.1-0.7,0.1-1.1,0.2c-0.4,0-0.9,0.1-1.4,0.1c-0.5,0-1,0-1.5,0h-1c0-0.2,0-0.4,0-0.7 c0-0.5,0-1.2,0-2v-2.1c0-0.2,0-0.3,0-0.5c0.2,0,0.3,0,0.5,0l1.3,0c0.5,0,0.9,0,1.4,0c0.5,0,0.9,0.1,1.2,0.1l0.7,0.1l-0.1-0.7 c0-0.2,0-0.4,0-0.5c0-0.2,0-0.4,0-0.6l0.1-0.6l-0.7,0.1c-0.3,0-0.6,0-0.9,0.1l-1.1,0.1c-0.4,0-0.8,0-1.3,0c-0.3,0-0.7,0-1.1,0 c0-0.2,0-0.4,0-0.7c0-0.5,0-1.1,0-1.6c0-0.5,0-1,0-1.4c0-0.3,0-0.5,0-0.8c0.5,0,0.9,0,1.2,0c0.5,0,0.9,0,1.3,0.1l1.1,0.1 c0.4,0,0.8,0.1,1.2,0.1l0.6,0l-0.1-0.6c0-0.2,0-0.4,0-0.5c0-0.2,0-0.4,0-0.5l0.1-0.6l-2.4,0.1c-1.2,0-2.4,0-3.6,0 c-0.6,0-1.2,0-1.8-0.1l-0.5,0l0,0.5c0,0.9,0.1,1.8,0.1,2.7c0,0.9,0,1.8,0,2.7v3.6c0,0.9,0,1.8,0,2.7c0,0.9-0.1,1.8-0.1,2.7l0,0.5 l0.5,0c0.6,0,1.2,0,1.8,0h3.7c0.6,0,1.2,0,1.8,0l0.7,0l-0.2-0.7c0-0.1,0-0.2,0-0.4c0-0.1,0-0.2,0-0.3 C240.4,239.8,240.4,239.7,240.4,239.7z"></path> <path d="M263,225.8c-0.7,0.2-0.7,0.2-1.4,0l-0.4-0.1l-0.2,0.4c-0.3,0.6-0.6,1.2-0.9,1.8c-0.3,0.6-0.6,1.3-1,1.9 c-0.3,0.6-0.7,1.2-1,1.8c-0.2,0.3-0.4,0.6-0.5,0.9c-0.6-1-1.1-2-1.6-2.9c-0.6-1.2-1.3-2.4-1.9-3.6l-0.2-0.3l-0.9,0.1 c-0.3,0-0.7,0-1,0l-1.6-0.2l0.5,0.9c0.1,0.2,0.3,0.6,0.6,1l3.8,6.5c0.2,0.4,0.4,0.7,0.5,0.9c0,1.1,0,2.1,0,3.1 c0,1-0.1,1.9-0.1,2.6l-0.1,0.6l0.6-0.1c0.6-0.1,1.3-0.1,1.9,0l0.6,0.1l0-0.6c0-0.3,0-0.7-0.1-1.1c0-0.5,0-1,0-1.6 c0-0.6,0-1.1,0-1.7c0-0.5,0-1.1,0-1.5c0.2-0.4,0.4-0.9,0.7-1.3c0.3-0.5,0.7-1.1,1-1.8c0.4-0.7,0.8-1.4,1.4-2.2 c0.5-0.8,1.1-1.8,1.8-2.8l0.6-1L263,225.8z"></path> </g> <g> <g> <path class="st0" d="M154.6,95.3V3.5h90.8v91.9c0,3.9-2.3,7.4-5.9,9.1L200,123.2l-39.6-18.9C156.9,102.7,154.6,99.1,154.6,95.3z"></path> </g> <g> <g> <defs> <path id="SVGID_1_" d="M162.2,100.8c-2.2-1.1-3.6-3.2-3.6-5.5V30.2h82.7v65.2c0,2.3-1.4,4.5-3.6,5.5L200,118.9L162.2,100.8z"></path> </defs> <clipPath id="SVGID_2_"> <use xlink:href="#SVGID_1_" style="overflow:visible;"></use> </clipPath> <polygon class="st1" points="183.2,28.6 183.2,57.2 154.6,57.2 154.6,86.7 183.2,86.7 183.2,123.2 200,123.2 216.8,123.2 216.8,86.7 245.4,86.7 245.4,57.2 216.8,57.2 216.8,28.6 "></polygon> </g> </g> <g> <path class="st2" d="M229.9,113.2L200,127.4l-29.9-14.2c-2.9-1.4-6.3-1.4-9.2,0l-6,2.9c-0.2,0.1-0.3,0.3-0.3,0.5v16.6 c0,1.7,1.8,2.8,3.4,2l3-1.4c2.9-1.4,6.3-1.4,9.2,0l27.3,12.9c1.6,0.8,3.5,0.8,5.1,0l27.3-12.9c2.9-1.4,6.3-1.4,9.2,0l3,1.4 c1.5,0.7,3.4-0.4,3.4-2v-16.6c0-0.2-0.1-0.4-0.3-0.5l-6-2.9C236.2,111.9,232.8,111.9,229.9,113.2z"></path> <path d="M234.5,113.1c1.5,0,2.9,0.3,4.2,1l5.8,2.8v16.4c0,0.9-0.8,1.4-1.5,1.4c-0.2,0-0.4,0-0.7-0.2l-3-1.4 c-1.5-0.7-3.3-1.1-5-1.1c-1.7,0-3.5,0.4-5,1.1L202.2,146c-0.7,0.3-1.4,0.5-2.2,0.5c-0.8,0-1.5-0.2-2.2-0.5L170.6,133 c-1.5-0.7-3.3-1.1-5-1.1c-1.7,0-3.5,0.4-5,1.1l-3,1.4c-0.2,0.1-0.4,0.2-0.7,0.2c-0.7,0-1.5-0.5-1.5-1.4v-16.4l5.8-2.8 c1.3-0.6,2.8-1,4.2-1s2.9,0.3,4.2,0.9l29.9,14.2l0.4,0.2l0.4-0.2l29.9-14.2C231.5,113.4,233,113.1,234.5,113.1 M234.5,112.2 c-1.6,0-3.2,0.3-4.6,1L200,127.4l-29.9-14.2c-1.5-0.7-3-1-4.6-1c-1.6,0-3.2,0.4-4.6,1.1l-6,2.9c-0.2,0.1-0.3,0.3-0.3,0.5v16.6 c0,1.3,1.1,2.2,2.3,2.2c0.3,0,0.7-0.1,1-0.2l3-1.4c1.5-0.7,3.1-1.1,4.6-1.1c1.6,0,3.2,0.3,4.6,1l27.3,12.9 c0.8,0.4,1.7,0.6,2.6,0.6c0.9,0,1.8-0.2,2.6-0.6l27.3-12.9c1.5-0.7,3-1,4.6-1c1.6,0,3.2,0.4,4.6,1.1l3,1.4c0.3,0.2,0.7,0.2,1,0.2 c1.2,0,2.3-0.9,2.3-2.2v-16.6c0-0.2-0.1-0.4-0.3-0.5l-6-2.9C237.6,112.6,236,112.2,234.5,112.2L234.5,112.2z"></path> </g> <path d="M234.5,114.8c1.2,0,2.4,0.3,3.4,0.8l4.8,2.3v14.6l-2.4-1.1c-1.8-0.9-3.8-1.3-5.8-1.3c-2,0-4,0.4-5.8,1.3l-27.3,12.9 c-0.4,0.2-0.9,0.3-1.4,0.3c-0.5,0-0.9-0.1-1.4-0.3l-27.3-12.9c-1.8-0.9-3.8-1.3-5.8-1.3c-2,0-4,0.4-5.8,1.3l-2.4,1.1v-14.6 l4.8-2.3c1.1-0.5,2.2-0.8,3.4-0.8s2.4,0.3,3.4,0.8l30.9,14.6l0.2,0.1l0.2-0.1l30.9-14.6C232.1,115.1,233.3,114.8,234.5,114.8 M234.5,114.5c-1.2,0-2.5,0.3-3.6,0.8L200,129.9l-30.9-14.6c-1.1-0.5-2.4-0.8-3.6-0.8c-1.2,0-2.5,0.3-3.6,0.8l-5,2.4v15.5l3-1.4 c1.8-0.8,3.7-1.3,5.7-1.3c1.9,0,3.9,0.4,5.6,1.3l27.3,12.9c0.5,0.2,1,0.3,1.5,0.3c0.5,0,1.1-0.1,1.5-0.3l27.3-12.9 c1.8-0.8,3.7-1.3,5.6-1.3c2,0,3.9,0.4,5.7,1.3l3,1.4v-15.5l-5-2.4C236.9,114.7,235.7,114.5,234.5,114.5L234.5,114.5z"></path> <rect x="154.6" y="3.5" width="90.8" height="25.1"></rect> <g> <g> <g id="Gold_Fill_19_"> <radialGradient id="SVGID_3_" cx="36210.8359" cy="44438.9688" r="0" gradientTransform="matrix(8.000000e-02 0 0 -7.730000e-02 -2723.1855 3492.2922)" gradientUnits="userSpaceOnUse"> <stop offset="0" style="stop-color:#F7EFCE"></stop> <stop offset="0.7506" style="stop-color:#C7B23A"></stop> <stop offset="0.9693" style="stop-color:#B8A300"></stop> </radialGradient> <path class="st3" d="M173.7,57.2L173.7,57.2L173.7,57.2z"></path> <radialGradient id="SVGID_4_" cx="36543.3047" cy="44266.3281" r="323.4744" gradientTransform="matrix(8.000000e-02 0 0 -7.730000e-02 -2723.1855 3492.2922)" gradientUnits="userSpaceOnUse"> <stop offset="0" style="stop-color:#F7EFCE"></stop> <stop offset="0.7506" style="stop-color:#C7B23A"></stop> <stop offset="0.9693" style="stop-color:#B8A300"></stop> </radialGradient> <path class="st4" d="M178.2,88.7C178.3,88.7,178.3,88.7,178.2,88.7l0.2-0.1c0,0,0,0,0,0l0.1-0.1c0.1-0.1,0.2-0.2,0.2-0.3 l0.1-0.2l0.3,0.1l-0.3-0.2l0.1-0.2l0.4,0.1l-0.3-0.2l0.1-0.2l0.4,0.1l-0.3-0.1l0.2-0.7c0-0.1,0-0.2,0-0.2 c0-0.1,0.1-0.5,0.3-0.7c0-0.1,0.1-0.1,0.2-0.2l0.2-0.2c0,0,0,0,0,0l0.2-0.1l0,0c0,0,0.1,0,0.1-0.1l0,0c0,0,0,0,0,0l0.1,0 c0,0,0,0,0.1,0h0c0,0,0.1,0,0.1,0c0.4-0.1,0.7,0.1,1.1,0.2c0.4,0.2,1,0.5,1.9,0.5c0.4,0,0.9-0.1,1.4-0.2 c-0.1-0.2-0.2-0.6,0.1-0.8l0.1,0l0.4-0.1c0.4-0.1,0.9-0.3,1.4-0.5c0.4-0.3,0.8-0.4,1.2-0.5c0.2,0,0.3-0.1,0.4-0.1 c-0.1-0.1-0.2-0.2-0.2-0.4v-0.2l0.1-0.1c0.2-0.1,0.4-0.2,0.7-0.2c0,0,0.1,0,0.1,0c-0.1-0.1-0.1-0.2-0.1-0.3 c0-0.3,0.3-0.5,1.5-1.2c0.3-0.2,0.9-0.5,1.2-0.7c-0.3-0.3-0.6-0.8-0.7-1.1c-0.1-0.4,0.1-0.6,0.3-0.7l0.2-0.1 c0.5-0.2,1.2-0.4,1.5-0.8l0.1-0.1l0.1,0c0.2,0,0.5-0.2,1-0.3c1.5-0.4,4-1.2,5.2-1.6l0.5-0.2v0.7l-0.3,0v0h0.3l0,0.5 c0,0,0,0.1,0,0.1l0,0.2c0,0.1,0,0.1,0,0.1v0c0.1,0.4,0.2,0.6,0.4,0.8l0.2,0.2c0.3,0.3,0.7,0.5,1.5,0.6c0.2,0,0.4,0,0.7,0 c0.3,0,0.7,0,1,0c0.7,0,1.4-0.1,2.1,0c0.6,0,1.1,0.4,1.2,1c0.1,0.7-0.3,1.5-1.3,1.8c-0.9,0.2-1.7,0.2-2.5,0.2h0 c-1.4-0.1-1.8-0.6-2.4-1.2l-0.1-0.1c-0.1-0.1-0.1-0.1-0.5-0.3c-0.2-0.1-0.4-0.2-0.6-0.2c-0.3-0.1-0.6-0.2-0.9-0.4 c-0.1-0.1-0.2-0.1-0.3-0.2c-0.1-0.1-0.2-0.2-0.2-0.3l0-0.1c-0.2-0.4-0.4-0.6-0.7-0.6c-0.3,0-0.5,0.1-0.7,0.3l-0.2,0.2l-0.2-0.2 c-0.6-0.3-1.5-0.1-2.1,0.5c-0.2,0.2-0.3,0.4-0.3,0.5c0,0,0.1,0,0.1,0c0.1,0,0.1,0,0.2,0h0c0,0,0.1,0,0.1,0l0.2,0 c0,0,0.1,0,0.2,0h0l0,0c0,0,0.1,0,0.2,0.1l0,0c0,0,0.1,0,0.1,0.1c0.1,0,0.1,0.1,0.1,0.1l0,0c0,0,0.1,0.1,0.1,0.1l0,0 c0,0,0.1,0.1,0.1,0.1l0.1,0.1v0c0,0,0,0,0,0l0,0c0,0,0.1,0.1,0.1,0.2l0,0c0,0.1,0.1,0.3,0,0.5c0,0.2-0.2,0.6-0.6,0.6 c-0.1,0-0.2,0-0.3-0.1c-0.2-0.1-0.4-0.2-0.6-0.2c-0.7,0-1.2,0.6-1.4,1.1c0,0.1-0.1,0.2-0.1,0.3c0.7-0.3,1.5-0.2,2.2,0.2 c0.6,0.3,0.6,0.9,0.6,1.3v0.3l-0.4,0.1c-1,0.3-1.5,0.6-1.8,1.9c0.9-0.5,1.9-0.5,2.7-0.5h0.2l0.1,0.1c0.5,0.5,1.1,0.6,1.5,0.3 c0.4-0.3,0.8-0.8,1.2-1.1c0.4-0.5,0.6-0.7,0.9-0.8l0,0c0.1,0,0.2-0.1,0.3-0.1c0.1,0,0.3,0,0.5,0.3c0.2,0.3,0.1,0.8,0,0.9 c-0.1,0.4-0.4,0.7-0.8,1c0.1,0,0.2,0.1,0.4,0.1c0.5,0,0.9,0,1.2-0.2c0.1,0,0.1,0,0.1-0.1c0.1,0,0.2-0.1,0.2-0.1 c0.1-0.1,0.2-0.1,0.4-0.1l0.1,0c0.1,0,0.2,0.1,0.3,0.2c0.1,0.1,0.1,0.3,0,0.5c0,0.1-0.1,0.2-0.1,0.4c0.7,0,1.2-0.2,1.4-0.6 l0.2-0.4l0.4,0.4c0.1,0.1,0.3,0.3,0.4,0.4c0.1,0.1,0.2,0.2,0.2,0.3c0.1-0.5,0.3-1.1,0.9-1.4l0.6-0.4v0.7c0,0.2,0.2,0.7,0.4,1 c0.1-0.2,0.2-0.5,0.3-0.7c0,0,0.3-0.4,0.6-0.4l0,0c0.3,0,0.5,0.3,0.7,0.6c0.1,0.1,0.2,0.3,0.3,0.5c0.3-0.6,0.7-1.3,0.9-1.5 l0.1-0.1l0.2,0c0.1,0,0.3,0.1,0.4,0.1c0.5,0.1,1.1,0.3,1.5,0.3c-0.5-0.7-0.7-1.1-0.7-2c0-0.1,0-0.1,0-0.2c0-0.1,0-0.1,0-0.2 c0.2-0.4,0.5-0.7,0.9-0.9l0.1-0.1c0.2-0.1,0.4-0.2,0.5-0.4c0.4-0.5,0.5-0.7,0.5-1.1c-0.1-0.4-0.5-0.7-1-1 c-0.2-0.2-0.5-0.3-0.7-0.5c-1-1-0.2-2.5-0.2-2.5c0.1-0.1,0.1-0.2,0.2-0.3l0.2-0.2l0.2,0.2c0.9,0.7,1.7,1.3,2.6,1.9 c0.7,0.5,1.5,0.8,2.5,0.8c0.3,0,0.5,0,0.8-0.1c0.3,0,0.7-0.1,1-0.1c1.7,0,3.6,0.5,3.6,2c0,0.9-1,2.1-2,2.1c-0.1,0-0.2,0-0.3,0 l-0.1,0l-0.1,0c-0.4-0.2-0.5-0.6-0.7-1c-0.2-0.4-0.3-0.7-0.6-0.7l-0.1,0c-0.2-0.1-0.6,0.1-1,0.5l-0.2,0.2l-0.2-0.1 c-1.3-0.5-2.4-0.2-3.1,1.1c0,0,0,0,0,0c0.2,0,0.4-0.1,0.7-0.1c0.8,0,1.5,0.3,2,0.8l0.1,0.1v0.1c0,0.2-0.2,0.4-0.2,0.4 c-0.1,0.1-0.3,0.2-0.6,0.7l-0.1,0.1l-0.2,0c-0.7,0.1-1.5,1.2-1.7,2.4c0.8-0.4,1.8-0.8,3-0.8h0.2l0.1,0.1c0.2,0.3,0.2,0.8,0.2,1 v0.2l-0.2,0.1c-0.7,0.3-1.4,0.5-2,0.6c0.5,0.4,1.3,0.6,2.1,0.6c0.7,0,1.3-0.2,1.5-0.4l0.1-0.1l0.2,0c0.8,0.1,1.3-0.1,1.6-0.6 c0.2-0.4,0.2-0.8,0-1.2c-0.1-0.2-0.1-0.4,0-0.6c0.1-0.2,0.3-0.3,0.5-0.3c0.1,0,0.2,0,0.2,0c0.4,0,0.7,0.2,0.9,0.4 c0.3,0.4,0.5,1.1,0.5,1.7c0.3,0,0.7-0.3,1-0.7l0,0c0.1-0.1,0.1-0.2,0.2-0.3c0.1-0.2,0.2-0.4,0.2-0.6l0-0.3h0.3 c0.9,0,1.6-0.1,2.6-0.8c-0.2-0.1-0.3-0.2-0.5-0.3l-0.1,0c-0.1-0.1-0.4-0.4-0.2-0.7l0,0c0.1-0.2,0.4-0.4,0.9-0.6 c0.2-0.1,0.4-0.2,0.5-0.3c-0.1-0.1-0.3-0.3-0.3-0.5V84l0-0.1c0.1-0.2,0.4-0.4,0.7-0.6c0.1,0,0.2-0.1,0.2-0.1 c-0.3-0.1-0.5-0.2-0.5-0.5v-0.2l0.1-0.1c0.1-0.1,0.2-0.2,0.4-0.4c0.3-0.2,0.7-0.6,1.1-0.9l0,0c-0.5,0-0.9-0.1-1.1-0.4l-0.2-0.2 l0.1-0.2c0.2-0.4,0.4-0.6,0.7-0.7c-0.1,0-0.3-0.1-0.4-0.2l0,0l0,0c-0.2-0.3,0-0.7,0.2-1c0.1-0.2,0.2-0.5,0.2-0.8h0 c0,0-0.1,0-0.1,0c-0.3,0.1-0.5,0-0.6-0.2c-0.1-0.2,0-0.5,0.2-0.8c0.1-0.1,0.2-0.3,0.2-0.5c-0.3,0.1-0.6,0.3-0.9,0.4 c-0.7,0.3-1.5,0.7-2.4,0.7c-0.1,0-0.3,0-0.4,0l-0.1,0l-0.1-0.2c0,0-0.1-0.1-0.1-0.2c-0.2-0.4-0.4-0.9-1.3-0.9 c-0.1,0-0.1,0-0.2,0.1c-0.8,0.5-1.9,1.1-2.7,1.1c-0.2,0-0.5,0-0.7-0.1l-0.1,0c0,0-0.1,0-0.1-0.1c0,0-0.1-0.1-0.1-0.1 c-0.5-0.5-0.8-1.3-1-2.1c0-0.1,0-0.2-0.1-0.4c-0.1-0.4-0.3-1.2-0.4-1.4c-0.3-0.4-0.8-0.8-1.3-1.1c-0.8-0.6-1.8-1.2-2.2-2.3l0,0 c0,0,0-0.1-0.1-0.2l-0.2-0.6l3.2,0.4l0.5,0l2.2-0.2l1.4-0.4l1.2-0.6l0.7-0.6l0.7-0.9l0-0.1c0,0,0-0.1,0-0.1l0-0.1 c0,0,0-0.1,0-0.1l0.2-0.4c0,0,0-0.1,0-0.1c0,0,0-0.1,0-0.1l0.1-0.2c0,0,0-0.1,0-0.1l0.1-1l0-0.6v-0.1c0-0.2,0.1-0.4,0.2-0.5 l0,0l0.3-0.2c0.1-0.1,0.2-0.1,0.3-0.2l0.2-0.2c0.1,0,0.1-0.1,0.2-0.2c0,0,0.1-0.1,0.1-0.1l0.1-0.1c0,0,0.1-0.1,0.1-0.1 c0,0,0.1-0.1,0.1-0.1l0,0c0,0,0,0,0.1-0.1l0.3,0.2l-0.3-0.2c0,0,0,0,0.1-0.1l0.3,0.2l-0.3-0.2c0,0,0-0.1,0.1-0.1l0.3,0.1 l-0.3-0.2c0-0.1,0.1-0.2,0.1-0.3v0c0,0,0-0.1,0-0.1l0,0c0,0,0-0.1,0-0.1l0-0.1c0,0,0-0.1,0-0.1c0-0.1,0-0.1,0-0.2v0 c0,0,0-0.1,0-0.1v-0.1c0,0,0-0.1,0-0.1v0c0-0.1,0-0.1,0-0.2l0-0.1c0-0.1-0.1-0.3-0.1-0.5v0c0,0,0-0.1,0-0.2v0c0,0,0-0.1,0-0.1 c0-0.1,0-0.1,0-0.2v0c0-0.1,0-0.1,0-0.2v0c0-0.1,0-0.1,0-0.2c0,0,0,0,0,0c0,0-0.1,0.1-0.1,0.1c-0.4,0.4-0.9,0.8-1.4,0.8 c-0.7,0-1.3-0.7-1.7-2.2c-0.2,0.3-0.5,0.6-0.9,0.6h-0.1c0,0-0.1,0-0.1,0l0,0c-0.6-0.2-1-0.9-1.5-1.5c-0.1-0.2-0.3-0.4-0.5-0.6 l0,0.3c0,0,0,0,0,0.1v0.1V56c0,0,0,0,0,0.1c0,0,0,0,0,0.1c0,0,0,0,0,0.1c0,0,0,0.1,0,0.1c0,0,0,0,0,0.1s0,0,0,0.1l0,0.1 c0,0,0,0-0.1,0.1l0,0.1c0,0,0,0-0.1,0l-0.1,0c0,0,0,0-0.1,0c0,0,0,0-0.1,0c0,0,0,0-0.1,0c-0.1,0-0.2,0-0.2,0l-0.1,0 c0,0,0,0-0.1,0l-0.7-0.4l-0.1-0.1l0.2-0.3l-0.2,0.3l-0.6-0.4l0.1-0.3l-0.2,0.3l0,0c0,0.2,0,0.6-0.3,0.9l-0.1,0.1l-0.1,0 c-0.2,0-0.4,0-0.7,0c-0.8,0-1.3-0.2-1.8-0.4l0,0.1c0,0.2-0.1,0.3-0.2,0.4l0,0c-0.2,0.1-0.4,0.2-0.7,0.2 c0.2,0.3,0.3,0.7,0.2,1.3l0,0.1c0,0.1-0.1,0.2-0.1,0.2c0,0,0,0,0,0.1l0,0.1c0,0,0,0,0,0.1l0,0.1l0,0c0,0,0,0,0,0l0,0l-0.3-0.2 l0,0l0.2,0.3c0,0-0.1,0.1-0.1,0.1l-0.5,0.3l-0.3,0.1c0,0,0,0-0.1,0l0,0c0,0,0,0-0.1,0h0c0,0-0.1,0-0.1,0c-0.1,0-0.1,0-0.1,0 l-0.2,0l-0.4,0c0,0-0.1,0-0.1,0c-0.1,0-0.1,0-0.1,0l-0.2-0.1c0,0-0.1,0-0.1,0l0,0c0,0,0,0-0.1,0c0,0,0,0,0,0c0,0,0,0-0.1,0 l-0.1-0.1c0,0,0,0-0.1-0.1l0,0c0,0,0,0,0-0.1c0,0,0,0,0-0.1c0,0,0-0.1-0.1-0.1c-0.1-0.1-0.1-0.3,0-0.4c0.2-0.3,0.6-0.4,1.1-0.5 c0,0,0,0,0,0c-0.2-0.3-0.4-0.7-0.1-1.5c0.1-0.5,0.8-0.9,1.6-1.3c1-0.6,2.2-1.2,2.4-2.1c-0.2,0-0.4,0.1-0.6,0.2 c-0.4,0.1-0.9,0.3-1.4,0.3c-0.4,0-0.7-0.1-0.9-0.3c-0.2-0.2-0.3-0.4-0.3-0.7c-1.3,0.9-2.6,1.3-3.7,1.1l-0.1,0 c-0.6-0.2-1-0.6-1.6-1.2c-0.6-0.6-1.3-1.3-2.3-1.6V52h-0.4c-0.7,0-1.3,0-1.8,0.1c0.8,0.1,1.4,0.4,1.8,1.4 c0.3,0.9-0.7,1.5-1.8,2.2c-0.8,0.4-1.7,1-2.3,1.7l-0.2,0.2l-0.3-0.2c-0.3-0.2-0.6-0.5-0.9-0.8c-0.1-0.2-0.3-0.4-0.4-0.4h-0.7 l0.5-0.6c0.4-0.5,0.7-0.9,0.7-1.3c0-0.5-0.2-1-0.3-1.1c-0.1-0.1-0.1-0.2-0.2-0.3c-0.4,0.2-0.8,0.2-1.3,0.2 c-0.7,0-1.2-0.2-1.4-0.6c0-0.1-0.1-0.2,0-0.4c-0.1,0-0.2,0-0.3,0.1l-0.1,0c-1.2,0-2.5,0-3.4,0.7l-0.3,0.2l-0.2-0.3 c-0.7-0.9-1.9-1.6-3-1.8l-0.1,0l-0.1-0.1c0,0-0.1-0.1-0.1-0.1c-0.3,0.6-0.8,0.9-1.6,0.9c0,0,0,0.1,0,0.1c0,0.2,0.1,0.3,0.1,0.4 v0.5l-0.5-0.2c0,0-0.4-0.2-1-0.2c-0.3,0-0.7,0-1,0.2l-0.1,0h-0.1c-0.2,0-0.3,0-0.5,0c0,0.1,0.1,0.2,0.1,0.2v0.1 c-0.2,0.8-0.9,1.2-1.5,1.5c0,0-0.1,0-0.1,0c0.2,0.1,0.3,0.3,0.5,0.6c0.2,0.3-0.1,0.7-1,1.6c0,0,0,0,0,0c0.2,0,0.3,0.1,0.4,0.2 c0.5,0.2,0.4,0.6,0.4,0.7c-0.2,0.4-0.4,0.6-0.7,0.9c-0.2,0.3-0.5,0.5-0.6,0.8c0.2,0,0.3,0,0.5,0.1l0.4,0.2l-0.3,0.3 c0,0.1-0.1,0.1-0.1,0.2c-0.4,0.6-0.8,1.3-1.1,2.4l0.3,0l0,0.3c0,0.6-0.2,1.1-0.4,1.5l0,0.1l0,0c-0.1,0.1-0.2,0.1-0.3,0.1 c-0.6,0-1.2-1-1.5-1.7c-0.2-0.5-0.8-1.8-0.8-3c0-3,0.4-3.5,0.7-3.8c0.1-0.1,0.1-0.1,0.1-0.2c0-0.3-0.1-0.4-0.5-0.6 c-0.3-0.1-0.6-0.2-0.8-0.6c-0.4-0.7-1.3-1.2-2.2-1.2c-0.2,0-0.4,0-0.6,0.1c0.3,0.1,0.6,0.4,0.9,0.9c0.2,0.4,0,0.7-0.1,0.8 c-0.1,0.1-0.1,0.1-0.1,0.1v0.4h-0.3c-0.1,0-0.2,0-0.3,0c-0.2,0.1-0.5,0.1-0.7-0.1c-0.4-0.3-1.2-0.7-1.9-0.7 c-0.4,0-0.7,0.1-0.9,0.3l-0.1,0.3l0.1-0.3l0.3,0.1c0,0,0.1,0,0.1,0c0,0,0.1,0,0.1,0l0.1,0c0,0,0.1,0,0.1,0.1l0.2,0.2 c0,0,0.1,0,0.1,0.1l0.1,0.1c0,0,0.1,0.1,0.1,0.1c0,0,0,0,0.1,0.1c0,0,0,0.1,0.1,0.1l0.1,0.1c0,0,0,0.1,0.1,0.1 c0,0,0,0.1,0.1,0.1c0,0,0,0.1,0.1,0.1c0,0,0,0.1,0,0.1c0,0,0,0.1,0,0.1l0,0.1c0,0,0,0.1,0,0.1l0,0.2c0,0.1,0,0.2,0,0.4l0,0 c0,0,0,0,0,0.1c0,0,0,0,0,0.1c0,0,0,0,0,0.1c0,0,0,0,0,0l0,0c0,0,0,0,0,0l-0.1,0.1c0,0,0,0-0.1,0c0,0,0,0-0.1,0l-0.1,0 c0,0,0,0-0.1,0l-0.1,0l-0.2,0c0,0,0,0-0.1,0c0,0,0,0,0,0l-0.1,0c0,0,0,0,0,0l-0.3-0.2l0.2-0.3l-0.2,0.3l-0.1-0.1c0,0,0,0,0,0 l-0.2-0.1l0.2-0.3l-0.2,0.3l0,0l0.2-0.3l-0.3,0.3l0,0l0.2-0.3l-0.3,0.2l0,0c0,0.1,0,0.2-0.1,0.3l0,0.1c0,0.6,0.1,1.4,0.8,1.6 c0,0,0.1,0,0.1,0s0.1,0,0.1,0c0.4,0,0.5,0.4,0.6,0.6c0,0.1,0,0.2,0.1,0.2c0,0,0,0,0.1,0l0.1,0c0,0,0,0,0.1,0c0,0,0,0,0.1,0 c0.1,0,0.2,0,0.2,0c0,0,0.1,0,0.1,0l0.5-0.1c0.1,0,0.1,0,0.1,0c0.2,0,0.4,0.1,0.5,0.2l0,0l0,0l0,0c0,0,0,0,0.1,0.1 c0,0,0.1,0.1,0.1,0.1l0,0c0,0,0,0.1,0,0.1l0,0.1c0,0,0,0.1,0,0.1v0c0,0,0,0.1,0,0.1l0,0c0,0,0,0,0,0.1l0,0c0,0,0,0.1-0.1,0.1 l0,0c0,0,0,0-0.1,0.1c0,0.1-0.1,0.1-0.2,0.2l-0.1,0.1c-0.1,0-0.1,0-0.2,0.1l-0.2,0c0,0,0,0,0,0l-0.1,0h-0.1c0,0-0.1,0-0.1,0 l-0.1,0l0-0.4l0,0l-0.1,0.4v-0.4l0,0.4h0c0,0.2,0.1,0.4,0.2,0.5c0.3,0.3,0.7,0.5,1.1,0.5c0.1,0,0.1,0,0.2,0 c0.3,0,0.5,0.2,0.6,0.4c0.1,0.3,0.1,0.8-0.2,1l-0.1,0c-0.3,0.2-0.6,0.4-0.9,0.5c-0.6,0.3-1,0.6-1.4,1c0.6,0,0.8,0.4,0.8,0.7 c0,0.5-0.2,0.8-0.4,1c0.3,0,0.5,0.1,0.6,0.3c0.4,0.4-0.1,0.9-0.5,1.3c-0.2,0.2-0.4,0.4-0.5,0.6c0.2,0,0.3,0,0.5,0 c0.7,0,1.2,0.4,1.4,1l0,0.1c0,0.4-0.1,0.7-0.3,1c0.1,0,0.3,0,0.4,0c0.4,0,0.6,0.2,0.7,0.3c0.2,0.3-0.1,0.7-0.4,1 c-0.1,0.1-0.3,0.2-0.4,0.4c0.3-0.1,0.7-0.1,1,0l0.2,0l0.1,0.1c0.1,0.3,0.1,0.6-0.1,0.9c-0.2,0.3-0.7,0.6-1.1,0.8 c0.3,0.1,0.7,0.2,1.2,0.2c0.8,0,1.7-0.2,2.2-0.4l0.4-0.2l0.1,0.4c0.2,1.1,1.3,1.3,2,1.5c0.3,0.1,0.7,0.2,0.7,0.5v0.2l-0.1,0.1 c-0.6,0.5-1,1.5-0.9,1.9l0,0.1c0.1,1.1-0.2,2-0.8,2.7c-0.6,0.6-1.4,1-2.4,1c-1.2,0-2.6-0.2-3.2-1.6c-0.3-0.8-0.8-0.9-1.4-0.4 l-0.2,0.1l-0.2-0.1c-0.2-0.1-0.4-0.1-0.6-0.1c-0.7,0-1.4,0.4-1.8,1c0.7,0.1,1.6,0.4,1.9,1.1c0.1,0.3,0.2,0.8-0.4,1.5l-0.1,0.1 h-0.2c-0.9,0-1.5,0.5-1.7,1.5c0.5-0.1,1-0.2,1.4-0.2c1.4,0,1.7,0.7,1.7,1c0.1,0.8-0.7,1.6-2,2.1c0.5,0.3,0.9,0.5,1.3,0.5 c0.4,0,0.9-0.2,1.5-0.4c0.1-0.1,0.3-0.1,0.4-0.2c0.3-0.2,0.6-0.1,0.8,0l0.1,0c0.4,0.2,0.6,0,0.8-0.6c0.1-0.3,0.2-0.5,0.4-0.7 c0.1-0.1,0.3-0.2,0.5-0.2s0.3,0.1,0.4,0.1c0.2,0.1,0.3,0.3,0.3,0.4l0,0c0,0.1,0,0.1,0,0.2c0,0.1,0,0.1,0,0.2c0,0.1,0,0.1,0,0.2 c0,0.1,0,0.1,0,0.2v0c0,0,0,0.1,0,0.1c0,0,0,0.1,0,0.1l0,0c0,0,0,0,0,0l0,0l0,0c0,0,0,0,0,0l0.1,0.3l0-0.4h0l0.1,0.3l-0.1-0.4 l0.1,0.3l-0.1-0.4l0.2-0.1l0.2,0.3l-0.2-0.3L178.2,88.7z M203.7,58c0.6-0.7,1.6-1.2,2.4-1.2c0.3,0,0.7,0.1,0.9,0.2 c0.6,0.4,1.1,0.9,1.5,1.3c0.6,0.6,1.1,1.2,1.9,1.5l0.2,0.1v0.2c0,0.2,0,0.4-1.9,1c-0.4,0.1-1.8,0.5-2.7,0.5c-2,0-2.9-0.7-3-2.3 C203.1,59.1,203.3,58.5,203.7,58z M200.4,62.1l0-0.1l0.7-0.6l0.2,0.5c0.6,1.3,1.8,1.9,3.6,1.9l0,0c0.5,0,1.1,0,1.6-0.2 c1.7-0.2,3.7-0.8,5.6-1.3c2.6-0.7,5.3-1.4,7.2-1.4c1.4,0,4.4,0.7,4.4,2.7c0,1.3-0.5,2-1.3,2.8l0,0c-1.6,1-5.5,1-5.6,1 c-0.9,0-3.4,0-4.5-0.9c-0.6-0.4-0.7-0.5-0.7-0.5c-0.5-0.2-1.1-0.3-1.7-0.3c-1.4,0-2.9,0.4-4.4,0.8c-1.4,0.4-2.8,0.7-4,0.7 c-0.1,0-0.2,0-0.4-0.2C200.5,66.5,200.2,63.2,200.4,62.1z"></path> <radialGradient id="SVGID_5_" cx="36565.418" cy="44050.125" r="0.3499" gradientTransform="matrix(8.000000e-02 0 0 -7.730000e-02 -2723.1855 3492.2922)" gradientUnits="userSpaceOnUse"> <stop offset="0" style="stop-color:#F7EFCE"></stop> <stop offset="0.7506" style="stop-color:#C7B23A"></stop> <stop offset="0.9693" style="stop-color:#B8A300"></stop> </radialGradient> <path class="st5" d="M202,87.2C202,87.2,202,87.2,202,87.2L202,87.2C202,87.2,202.1,87.2,202,87.2L202,87.2z"></path> </g> <path id="Black_Outline_19_" class="st6" d="M231.3,80.8c-0.4,0-1.2,0.2-1.6-0.2c0.4-0.8,1-0.6,1-1c-0.2-0.2-0.6-0.2-0.8-0.4 c-0.2-0.4,0.6-1.1,0.4-1.9c-0.2-0.2-0.4-0.1-0.6,0c-0.6,0.2,0.8-1.2,0.2-1.5c-1.4,0.4-2.4,1.4-4,1.2c-0.2-0.2-0.4-1.3-1.8-1.4 c-0.1,0-0.2,0-0.5,0.1c-0.9,0.6-2.4,1.3-3.2,0.8c-0.5-0.4-0.8-1.2-1-2c-0.1-0.4-0.3-1.6-0.5-1.8c-0.7-1.2-2.9-1.6-3.5-3.5 c3.6,0.7,10.5,0.7,10.4-5.7c0-0.1,0-0.2,0.1-0.2c0.6-0.3,2.6-1.2,2.1-3.5c0-0.1-0.1-0.3-0.1-0.5c0-0.5,0-0.9,0.3-1.4 c0.1-0.2,0.3-0.3,0.3-0.3c-1-0.8-2.6,3.7-3.8-1c0-0.1-0.2-0.4-0.4-0.4c0,0.4-0.5,1.1-0.8,1c-1-0.4-1.8-2.7-2.6-2.5 c0.2,0.9,0.4,1.6-0.1,1.7c0,0-0.1,0-0.2,0c-0.8-0.2-1.3-0.9-2.1-1.1c-0.2,0.4,0.2,0.8-0.2,1.1c-1.4,0.2-2.2-0.4-3-0.6 c0,0.2,0.2,0.3,0.2,0.7c0,0.1,0,0.1-0.1,0.2c-0.4,0.3-0.9,0-1.1,0c0,0-0.1,0-0.1,0.1c0,0.3,0.8,0.7,0.5,1.6 c-0.1,0.3-0.2,0.4-0.2,0.4c-0.4,0.5-2,0.9-2.5-0.2c-0.2-0.4,1.2-0.4,1.4-0.6c-0.2-0.4-0.8-0.6-0.4-1.5c0.2-1,4.2-1.7,4-3.9 c-0.8-0.2-3.4,1.6-3.2-0.7c-0.2,0-0.3,0-0.3,0.1c-1,0.7-2.3,1.4-3.7,1.3c-1.2-0.4-2.2-2.5-4.4-2.9v1.3c-1.4,0-2.6,0-2.8,0.8 c1.2,0,2,0,2.4,1.2c0.4,1.2-2.4,1.8-4,3.5c-0.5-0.4-1.2-1.3-1.4-1.3c0.5-0.5,0.7-1.1,0.8-1.6c0-0.5-0.2-1-0.3-1.3 c-0.1-0.3-0.2-0.4-0.4-0.6c-1,0.6-3.2,0.4-2.2-0.6c-0.2,0-0.4-0.2-1,0c-1.2,0-2.6,0-3.6,0.8c-0.8-1-2-1.7-3.2-1.9 c-0.2-0.2-0.4-0.4-0.6-0.4c-0.2,1-0.8,1.1-1.8,1c0,0.4,0.2,0.8,0.2,1c0,0-1-0.4-2.2,0c-0.6,0-1.2-0.2-1.4-0.2 c0,0.2,0.6,0.6,0.6,0.7c-0.2,1-1.4,1.2-1.8,1.6c0.4,0.4,0.6,0.4,0.8,0.8c0.1,0.2-1.2,1.3-1.4,1.5c0.4,0.2,1.3,0.4,1.2,0.6 c-0.4,0.8-1.4,1.3-1.4,2.3c0.2,0,0.4-0.2,0.8,0c-0.6,0.7-0.9,1.6-1.3,2.7c-0.1,0.2,0,0.3,0.1,0.4c0.1,0,0.2,0,0.2,0 c0,0.6-0.2,1-0.4,1.3c-0.4,0.3-2-2.4-2-4.3c0-4.1,0.8-3.3,0.8-4.1c0-1-1-0.7-1.4-1.3c-0.8-1.3-3-1.8-4-0.8c0.6,0.2,1,0.2,1.4,1 c0.2,0.4-0.2,0.4-0.2,0.8c-0.4,0-0.6,0.2-0.8,0c-0.8-0.6-2.6-1.3-3.8,0c0.9,0.2,1.9,0.7,2.2,1.8c0,0.1,0,0.2,0,0.2 c-0.4,1-1.8-0.7-1.8-0.7c-0.6,0.7-0.6,2.5,0.6,3c0.1,0,0.3,0,0.3,0c0.4-0.1,0.2,0.4,0.5,0.7c0,0,0.3,0.2,0.4,0.2 c0.3,0.1,0.7,0,1-0.1c0.2,0,0.3,0,0.4,0.1c0.2,0.1,0.2,0.3,0,0.5c0,0-0.1,0.2-0.3,0.2c-0.4,0.1-0.7,0-1.1,0c0,0-0.1,0.7,0.3,1.1 c0.4,0.4,0.9,0.6,1.5,0.6c0.4,0,0.4,0.6,0.2,0.8c-1.2,0.8-2.2,1-2.8,2.3c0.6-0.2,1.2-0.2,1.2,0.2c0,0.6-0.4,0.8-0.8,1.2 c0,0-0.2,0-0.2,0.2c0.4,0.2,1-0.2,1.2,0.2c0.4,0.4-1.4,1.3-1.2,2.1c0.8-0.2,1.8-0.4,2,0.6c0,0.6-0.4,1.1-1,1.5 c0.8,0,1.6-0.4,1.8,0c0.2,0.2-1.2,1-1.2,1.7c0.6-0.2,1-0.4,1.6-0.2c0.4,0.8-1.4,1.3-1.6,1.3c0.6,1,3.2,0.8,4.4,0.2 c0.4,1.7,2.6,1.7,2.6,1.9c-0.6,0.6-1.2,1.7-1,2.3c0.2,1.8-0.8,3.3-2.8,3.3c-1.2,0-2.4-0.2-2.8-1.3c-0.4-1.1-1.2-1.1-2-0.6 c-1.2-0.6-2.8,0.4-3.2,1.5c0.8-0.2,3.2,0.6,1.8,1.9c-1,0-2,0.6-2.2,2.3c4.4-1.2,3.8,1.5,0.8,2.3c1.8,1.5,2.6,1,4.2,0.4 c0.3-0.1,0.4-0.1,0.6,0c1.2,0.5,1.2-1,1.6-1.3c0.2-0.2,0.4-0.1,0.5,0c0.1,0,0.1,0.1,0.1,0.2c0.2,0.9-0.4,1.2,0,1.4 c1.3,0.2,2.3-1.5,2.4-2.8c0-0.1,0.1-0.4,0.2-0.4c0.2-0.2,0.5-0.6,0.8-0.6c0.8-0.2,1.6,1.4,4.8,0.4c0-0.2-0.4-0.6-0.2-0.8 c0.6-0.2,1.2-0.4,1.8-0.6c0.6-0.6,1.6-0.4,2.2-1c-0.2,0-0.6-0.2-0.6-0.4c0.2-0.2,1.4-0.2,1.2-0.6c0,0-0.2,0-0.4-0.2 c-0.4-0.2,2.8-1.5,2.8-1.9c-0.2,0-1.2-1.2-0.8-1.3c0.6-0.2,1.4-0.4,1.8-1c0.6-0.2,4.6-1.4,6.2-1.9c0,1.3,0.2,2,0.7,2.5 c0.4,0.4,0.9,0.6,1.7,0.8c1.2,0.2,2.4-0.2,3.8,0c1.2,0,1.2,1.7-0.2,2.1c-0.8,0.2-1.6,0.2-2.4,0.2c-1.4-0.2-1.7-0.6-2.2-1.2 c-0.2-0.2-0.2-0.2-0.6-0.4c-0.6-0.3-1-0.3-1.5-0.6c-0.5-0.3-0.7-1.2-1.5-1.2c-0.5,0-0.8,0.2-1,0.4c-1.2-0.7-3.2,0.6-3,1.9 c0.5-0.3,1.4-0.4,1.9,0.6c0,0.1,0.1,0.1,0,0.3c0,0.2-0.2,0.4-0.3,0.3c-1.8-1-3.2,1.5-2.6,2.1c0.6-0.4,1.4-0.6,2.2,0 c0.4,0.2,0.4,0.6,0.4,1c-1.2,0.4-1.8,0.8-2.2,2.7c0,0.3,0.2,0.2,0.2,0.2c1-0.8,2-0.8,3-0.8c0.6,0.6,1.4,0.8,2,0.4 c0.8-0.6,1.6-1.8,2-1.9c0.1-0.1,0.3-0.2,0.4,0c0.1,0.2,0,0.7,0,0.7c-0.1,0.4-0.6,0.7-1,1c0,0.2,0.4,0.4,1,0.4 c0.8,0,1.2,0,1.8-0.4c0.1-0.1,0.2,0,0.2,0s0.1,0,0,0.2c-0.1,0.3-0.4,0.8-0.2,0.8c1,0.2,1.8,0,2.2-0.8c0.4,0.4,0.6,1,1.2,1.2 c0-0.6,0.2-1.4,0.8-1.8c0,0.4,0.6,1.9,1,1.5c0-0.1,0.2-0.7,0.4-1c0.1-0.1,0.2-0.2,0.2-0.2c0.2,0,0.6,1.4,1.1,1.2 c0.2-0.6,0.8-1.5,1-1.7c0.8,0.2,2,0.6,2.8,0.4c-0.8-1-1-1.3-1-2.3c0-0.8,1-1,1.4-1.5c0.4-0.5,0.6-0.8,0.6-1.3 c-0.2-0.8-1.2-1.2-1.8-1.8c-0.8-0.8-0.2-2-0.2-2.1c0.1-0.1,0.1-0.2,0.2-0.2c1,0.8,1.8,1.4,2.6,1.9c1,0.8,2.4,1,3.6,0.8 c1.4-0.2,4.2,0,4.2,1.5c0,0.8-1,1.9-1.8,1.7c-0.6-0.4-0.6-1.5-1.4-1.7c-0.4-0.2-1,0.2-1.4,0.6c-1.4-0.6-2.8-0.4-3.8,1.5 c0,0.4,0.4,0.2,0.6,0.2c0.8-0.2,1.8,0,2.4,0.6c0,0.2-0.2,0-0.8,1c-1,0.2-2,1.8-2,3.1c0,0.2,0,0.2,0.2,0.2c1-0.6,2-1,3.2-1 c0.2,0.2,0.2,0.6,0.2,0.8c-0.8,0.4-1.6,0.6-2.4,0.6c-0.2,0-0.2,0.2,0,0.4c1.2,1.1,3.6,1.1,4.4,0.4c1.8,0.2,2.6-1.1,2-2.3 c-0.1-0.2,0-0.4,0.2-0.4c1-0.2,1.4,1.1,1.2,2.1c1,0.3,2.1-1.1,2.2-1.9c1.2,0,2-0.2,3.4-1.4c-0.3,0-0.8-0.1-1-0.4 c-0.2-0.1-0.3-0.2-0.2-0.3c0.2-0.3,1.3-0.7,1.6-1c0-0.2-0.4-0.4-0.4-0.6c0.2-0.4,1.2-0.6,1.2-1.2c0,0-0.8,0-0.8-0.2 C229.5,82.5,230.9,81.5,231.3,80.8z M173.2,58.8c0,0.1-0.1,0.1-0.1,0.1c-0.6,0.1-1.1-1.4-0.9-1.6c0.2,0,0.2,0.6,1.2,0.8 C173.4,58.3,173.2,58.6,173.2,58.8z M171.9,85.3c0,0-0.1,0.1-0.2,0c-0.5-0.1-0.7-0.1-1.4,0.3c0.2-0.8,1.4-1.2,1.6-1V85.3z M194.7,83.1c0,0.2-0.1,0.1-0.2,0.1c0,0-0.2-0.1-0.3-0.1c-0.5-0.1-0.9-0.1-1.3,0c0.2-0.6,1.2-1,1.8-0.8 C194.9,82.3,194.5,82.3,194.7,83.1z M195.1,86.3c-1,0-1.2,0.2-1.8,0.4c0-0.4,1.1-1.3,1.7-1.2c0.1,0,0.1,0.1,0.1,0.1 c0,0.3,0,0.3,0.2,0.7L195.1,86.3L195.1,86.3z M215.1,87.9c0-0.4,0.6-1.5,1.2-1.5c0,0.4,0.2,0.8,0.4,1.2 C216.9,87.7,215.5,87.7,215.1,87.9z M202.5,56.8c1.2-1.1,3.4-1.8,3.4-2.9c0.2-1.5-1.4-1.7-1.6-1.8c0.6-0.4,2,0.2,2.4,1 c0.2,0.2,0.2-1.3-0.2-2.1c0,0,0.2,0,0.4,0.2c1.6,1.1,1.5,2.6,1,3.7c-0.1,0.2,0.2,0.4,0.4,0.2c0.8-1.5,2.7-1.3,4.1-1.9 c0,0,0.2,0,0.2,0c0.1,0,0.1,0.2,0.1,0.2c-0.4,0.2-0.6,0.5-0.8,0.7c0,0-0.1,0.1,0,0.1c0,0.1,0.2,0.1,0.4,0.1c2.6,0,4-1.1,4.2-1 c0,0.2-0.4,1.2-4.2,2.1c-0.8,1.2,0.6,2.2,0.4,2.3c-1,0.2-1.6-0.4-1.6-1.4c0-0.2,0-0.2-0.1-0.2c-0.1,0-0.1,0.1-0.2,0.1 c-1,1.4,0.9,3.2,2.3,3.6c0,0,0,0,0,0.2c0,0-0.3,0.1-0.6,0c-4.1-0.8-3.3-3.8-6.6-3.7c-0.1,0-0.4,0-0.5,0.1 c-1,0.3-2.4,1.4-2.8,2.7c-0.2,1.1,0.6,2.5,1.6,2.9c2.8,0.8,5-0.6,7.4-1.5c1.2,0.4,2.4,0.2,3-0.4c0,0-0.8-0.2-1-0.6 c0,0,0.3,0,0.3,0c1.3-0.2,1.9-0.6,1.7-2.1c1,0,2,1.2,2.2,1.5c0.6,0-0.4-1.7-0.6-2.1c1.2,0.4,2.2,0.6,2.8,1.9 c0.6,0-0.4-2.5-0.2-2.3c2,1,1.8,2.7,2,2.5c0.6-0.8,0.2-1.5,0.4-2.1c1.2,0.5,2.2,1.3,1.7,2.4c0,0.1,0,0.2,0,0.2 c0,0.1,0.2,0.1,0.2,0.1c0.4,0,1-1.2,1-1.4c0.6,0.8,1,1.7,0.6,2.5c-0.1,0.1-0.2,0.2-0.2,0.3c0,0,0,0.1,0,0.1c0.2,0.1,0.4,0,0.5,0 c1-0.6,0.8-1.7,1.4-2.1c0.6,2,0.2,3.2-1.7,3.8c-0.4,0.1-0.5,0.3-0.5,0.3c0.2,1,0,1.9-0.4,2.7c-0.6,1.5-1.8,2.1-3.2,2.7 c-2,0.8-6,0.6-7.6-0.6c-0.3-0.2-0.4-0.4-0.6-0.6c2.6,0.7,9.4,1.2,10.6-2.5c1-2.5-1.4-4.2-3.4-4.5c-4.2-0.4-7.8,1.4-12.8,2.9 c-2.4,0.6-6.6,0.4-6.6-2.9C200.9,58.9,201.3,57.8,202.5,56.8z M210.3,60.3c0,0.2-3,1.2-4.2,1.2c-2.2,0-2.6-1-2.6-1.9 c-0.2-1.2,2-2.9,3.4-2.1C208.1,58.2,208.9,59.5,210.3,60.3z M200.7,62.2l0.2-0.2c1,2.1,3.4,2.3,5.6,1.9c4-0.6,9.4-2.7,12.8-2.7 c1.2,0,4,0.6,4,2.3c0,1.2-0.4,1.8-1.2,2.5c-1.2,0.8-4.2,1-5.4,1c-0.9,0-3.3,0-4.3-0.8c-0.1-0.1-0.7-0.5-0.8-0.6 c-0.6-0.2-1.1-0.3-1.9-0.3c-2.8,0-6,1.5-8.4,1.5C200.9,66.8,200.5,63.4,200.7,62.2z M200.5,60.7c0,0.2,0,0.2-0.2,0.2 c-0.2,0-0.6-0.2-0.8-1c-0.2-0.8-1-1.3-1.8-1.5c0.2-0.4,0-0.7,0-1.1c0.6-0.2,1.2-0.2,1.6,0.2c0.6,0.4,0.2,1.4,1,2.9 C200.3,60.5,200.5,60.5,200.5,60.7z M193.1,71.7c-1-0.8-1.2-1.2-1.6-2.1c-0.2-1.7,0.6-3.5-0.2-5.2c0-0.2-0.4-0.6,0-0.6 c0.4-0.2,0.8-0.4,1-0.6c0.8,0.8,0.8,3.3,0.8,4.1C192.9,69,192.5,69.7,193.1,71.7z M190.6,74.8c-1.4-0.2-1.8-2.1-1.4-4.4 c0.2-1.8,1.2-2.9,1-5c0.2,0,0.6-0.6,0.6-1c1.4,2.9-1.4,6.6,1,8.9c-1.4,0.4-1.8-1.4-1.8-1C189.7,73,190.1,74,190.6,74.8z M188.6,75.5c-1.2-1.1-1.4-3.9-1.4-5.4c0.2-1,0.6-3.1,1.2-4.1c0,0,0,0.2,0.2,0.2c0.6,0,0.6-0.2,1.2-0.6 C189.7,69.4,187.5,68.8,188.6,75.5z M186.6,70.7c-0.2,1-2.4,3.3-4.8,2.9c5.8-3.5,3.4-6.4,4.8-8.5c0.4-0.2,0.6-0.8,1.2-0.8 c0,0.8,0.6,1.1,0.4,1.5C187.5,67,186.7,69.4,186.6,70.7z M186.9,73.8c-0.4,0.4-0.6,0.4-1,1.2c0,0-0.6-1.5-0.2-2.3 c0.2-0.2,0.6-0.6,0.8-1C186.7,72.3,186.7,73.2,186.9,73.8z M181.1,71.5c2.2-1.5,2.8-3.1,4.4-4.8c0,0.8,0,2.1-0.8,3.3 C183.9,71.1,181.9,71.3,181.1,71.5z M192.5,60.9c-0.2,0-0.2,0-0.4,0.2c0,0.6-1.6,0.2-1.8,0v-0.8c0.2-0.2,0.4,0.6,0.8,0.6 c0.4,0.2,0.4,0,0.8-0.4c0.2,0,0-0.2,0-0.2c-0.4-0.6-0.6-1.5-0.2-2.3c0.2,0,0.4,0,0.4,0c0.4,0.4,0,1.2,0.4,1.3 c0.2,0.2,0.4,0.4,0.6,0.4c0.6-0.2,0.2-0.8,0.4-1.4c0.2-0.2,0.6-0.6,1.2-0.6c0,0.2,0,0.4,0.2,0.6c0,0.2,0.6,0.4,0.2,0.6 c-0.4,0.6-0.6,1.3-0.8,2.1c-0.4,0.6-2,1.2-3.2,1.9c-0.2-0.2,0-0.6-0.2-1.1c0.4,0,0.8,0,1.2-0.2c0.2,0,0.8,0.2,1-0.2 C193.1,61,192.9,60.7,192.5,60.9z M189.3,63.9c0.4-0.6,0.8-2.5,1-2.1c0.8,1.5-1,3.5-1.4,3.3c-0.4,0-0.8-2.3,0.4-3.5 c0-0.2,0.2,0,0.2,0c-0.2,0.8-0.4,1.5-0.4,2.3L189.3,63.9L189.3,63.9z M191.3,59.7c0.2,0.4,0.4,0.6,0,0.8c0,0-0.2,0.2-0.2,0 l-0.6-0.6c-0.4-0.4-0.8,0-1.2,0c0-0.2,0-0.2,0-0.4c1-0.2,1.4-1,1.8-1.7h0.2C191.5,58,190.7,58.9,191.3,59.7z M194.9,57.4 c-0.6-0.2-2.4,0.6-3.2,0c0.2-0.6,0.8-1.5,1.6-1.5c0.6-0.2,1.6,0.6,1.8,1.2c0,0,0.2,0,0.4-0.2c0.4,0,0.8,0,1.2,0.4 c0.2,0.2,0.2,0.4,0,0.8c-0.2,0.2-1,1-1.4,0.2C195.1,58,195.4,57.6,194.9,57.4z M191.3,57.2c-0.6-0.2-2.4-1.9-2.6-1.9 c0,0-0.2,0.6-0.9,0.8c-0.1,0-0.3,0.1-0.4-0.1c-0.4-0.3-0.6-1.2-0.1-1.8c0.1-0.1,0.4-0.2,0.6-0.2c0.3,0,0.6,0.2,0.8,0.7 c0.8,0,1.8,0.2,2.4,0.6c0.4,0,0.6,0.4,0.6,0.8C191.5,56.4,191.5,57,191.3,57.2z M187.7,57.4c0-0.2-0.2-0.7,0.4-1 c0.2,0,0.4-0.2,0.6-0.4c0.2,0,0.4,0.4,0.6,0.6c-0.2,0.6-0.8,1-0.6,1.5c0,0,0.2,0.2,0.4,0.2c0.4-0.2,0.8-0.4,1-1h0.2 c0,0,0.2,0,0.2,0.2c0,0.2-0.2,0.6-0.2,0.7c-0.2,0.4-0.8,0.6-1,0.8c-0.2,0.2-0.6,0.2-0.6,0.4c0.2,0.4,0.4,0.6,0.6,0.8 c0.2,0.2,0.4,0,0.6,0c0,0.2-0.2,0.4-0.2,0.8c-0.2,0-0.6-0.2-0.8-0.2c-0.2-0.2-0.4-0.4-0.4-0.6c0-0.2,0-0.6-0.2-0.8h-0.6 c-0.2,0.2-0.2,0.2-0.2,0.4c0,0.2,0,0.4,0.2,0.4c0.4,0,0.4,0.4,0.6,0.6c0.2,0.4,0.8,0.4,0.4,0.8c-0.2,0-0.2,0.2-0.4,0.4 c-0.2,0-0.2-0.2-0.2-0.4c-0.4-0.6-0.8-1.2-1.2-1.9C187.1,58.9,187.5,58.2,187.7,57.4z M192.9,63c-0.2,0,0.8-0.4,1-0.6 c0.6,1,1,2.3,1,3.5c0.4,1.2,0,2.5-0.2,3.5c-1.4-1.1-0.8-3.1-1.2-4.6C193.3,64.1,193.1,63.6,192.9,63z M194.3,62 c0.2,0,0.2,0,0.4-0.2c0.2-0.2,0.4-0.8,0.4-0.6c0.8,0.8,1.4,2.3,1.4,3.9c0.4,1.7,1.2,2.3,1,2.3c-0.6-0.2-1.2-0.6-1.6-1 C195.5,65.7,195.5,64.3,194.3,62z M195.5,60.5c-0.2,0,0.2-0.8,0.2-0.8c0.2-0.2,0.4,0,0.6,0.2c2,1.8,1,5,3,6.8 c0.2,0.4-1.2,0-1.6-0.6C196.5,64.3,197.1,63,195.5,60.5z M197.9,61.6c-0.4-1-1-1.8-1.8-2.3c1.2-0.2,1.2-0.4,1.2-0.4 c0.6,0,1.4,0.4,1.8,1.2c0.6,2.1,0.2,3.3,1,6.4C198.9,66.3,198.5,63,197.9,61.6z M200.1,56.4c0,0.1-0.2,0.2-0.2,0.2 c-0.8,0.4-1.4-0.2-2.2,0.2c-0.2,0.2-0.2-0.2-0.4-0.4c-0.2,0-0.7-0.2-0.6-0.2C197.9,55.7,198.9,55.4,200.1,56.4z M200.1,53.9 c-0.2,0.5-0.5,1.2-1.1,1.3c0,0-0.3,0-0.3,0c-0.9,0.1-1.7,0-2.6,0.7c-0.2,0-0.2-0.2-0.4,0c-0.2,0.2-0.7-0.3-0.6-0.4 c2-1.9,3-1.5,4.8-1.9C199.9,53.7,199.9,53.9,200.1,53.9z M196,53.4c0.3-0.1,1.5-0.4,1.7-0.4c0.7,0,1.4,0.3,2,0.1 c0.2,0,0.2,0,0.2,0c-0.4,0.6-1,0.4-2,0.6c-1.6,0.2-2,0.6-3,1.7c-0.4,0-0.4-0.2-0.6-0.2C194.8,54.1,195.2,53.7,196,53.4z M195.4,52c0,0,0.4,0,0.5,0c0.1,0,0.5,0,0.5,0c0,0.2-0.1,0.3-0.2,0.4c-1,0.8-2,1.8-2.6,2.7h-1C192.7,53.9,193.3,52.2,195.4,52z M192.5,53.1c-0.2,0.6-0.4,1-0.6,1.5c0,0.1-0.2-0.2-0.8-0.4c-0.6-1.1-0.8-1.9-1-3.3C191.3,51.8,191.9,52.4,192.5,53.1z M190.6,54.1h-1.2c-0.4-0.8-1-1.6-1.2-2.5C189.7,52,190.6,53.3,190.6,54.1z M188.6,53.5c-0.2,0.2-0.4-0.4-1.4,0 c-0.2,0-0.4,0-0.8-0.4c-0.3-0.3-0.4-0.2-0.8-0.8C186.7,52.4,187.7,52.4,188.6,53.5z M186.6,53.7c-0.2,0.2-0.4,0.6-0.6,0.7 c-0.6,0-1.2-0.2-1.8-0.6C185.7,52.8,186.7,53.5,186.6,53.7z M183.9,55.8c0.6-0.4,1.2-0.6,2-0.8v0.8c-0.6,0-1.4,0.2-2.2,0.4 C183.5,56.3,183.8,55.9,183.9,55.8z M183.5,57.9c0.6-0.7,1.9-1.2,2.4-1.4c0.1,0,0.2-0.1,0.3-0.1c0.3,0,0.3,0.2,0.5,0.4 c0.1,0.1,0.1,0.2,0,0.3c0,0.2-0.1,0.3-0.2,0.3c-0.6,0.3-1.6,0.2-2.9,0.5C183.5,58,183.5,58,183.5,57.9z M186.6,57.8 c-0.2,0.6-0.2,0.8-0.6,1.5c-1.6,0.4-1.2,2.1-3.2,2.5c-0.2,0-0.3,0-0.4,0C182.7,59.5,184.9,58.2,186.6,57.8z M186.6,61 c-1.8,1.2-1.8,2.9-3.8,2.5c0,0-0.2,0,0-0.1c2.2-1.9,2.1-3,3.4-3.5C186.1,60.3,186.4,60.7,186.6,61z M186.7,61.5 c0.6,0.4,0.8,1,1,1.3v0.8c0,0.2-0.4,0.2-0.6,0.2c-2.4,1-1.6,3.5-4.6,5h-0.2C184.4,67,184.1,63.4,186.7,61.5z M176.9,54 c-0.2-0.3-0.4-0.5-0.7-0.6c0.8-0.2,1.6,0,2,0.8c-0.3,0-0.6,0.2-0.9,0.1C177,54.2,176.9,54.1,176.9,54z M173,54.9 c0.6-0.2,1.6,0.2,1.8,0.4c0,0-0.1,0.2-0.2,0.3c-0.2,0.2-0.3,0.5-0.4,0.4C173.6,54.9,172.6,55.1,173,54.9z M179.8,74.2 c0-0.1-0.1-0.2-0.1-0.2c-0.1-0.1-0.2-0.1-0.3,0.1c-1.8,1.2-3,0.7-3.2,0.7c2-1.2,1.6-1.3,2.6-2.9c-0.4-0.6-1.6,0.8-2.4,0.6 c0.4-0.2,0.5-0.5,0.9-1.2c0-0.1,0.2-0.4,0.2-0.4c0.4-0.9,1.1-1.1,1.1-1.1c-0.4-0.4-2.6,1.1-2.6,1.1c0.6-1.9,1.6-2.3,1.8-3.2 c0,0,0-0.1,0-0.2c0,0,0,0,0-0.1c0,0-0.1,0-0.2,0.1c-1.4,1.4-2.3,1.6-3.3,1.6c0.2-0.9,3.3-1.5,3.6-3.2c0-0.1,0-0.1,0-0.1 c-0.2,0-0.6,0.6-1.3,0.8c-0.6,0.2-1.4,0.2-1.6,0.2c0.8-1,1.2-1.1,2-1.9c-0.8,0-1.8,0.4-2.6,0.4c-0.1,0-0.1-0.1,0-0.1 c0,0,0.1-0.1,0.1-0.1c1.2-0.9,2.5-0.7,2.5-1.9c0-0.3-0.2-0.7-0.5-0.9c0,0-0.2-0.1-0.3-0.1c-0.7,0-1.8-0.1-1.6-0.8 c1.2,0.4,2.2-0.2,1.8-1.4c-0.3-0.7-1-0.6-1.8-0.4c-0.2,0.1-0.3,0-0.4,0c-0.5-0.4-0.1-1.3,0.2-1.4c0.1,0,0.2-0.1,0.3-0.1 c0.5-0.2,0.8,0.5,1.2,0c0,0,0.1-0.2,0.1-0.3c0.1-1.1-1.2-0.6-1.2-1.2c0.2-0.8,1.2-1.2,1.8-1.2c0.5,0-0.3,1,0.7,1.2 c0.2,0,0.4-0.1,0.6-0.3c0.7-0.7-0.4-0.9-0.4-1.1c0-0.7,1.5-0.6,1.9-0.3c0.2,0.1,0.5,0.5,0.2,0.8c-0.3,0.3-0.6,0.6-0.8,1.2 c-0.1,0.3-0.6,4.6,0,6.4c0.1,0.2,0.2,0.3,0.2,0.4c0.4,0.4,0.9,0.3,1.3,0.6c0.6,0.6,2.2,3.3,2,3.5c-0.4,0.6-1,1-1.4,1.4 c0,0.4,0.6,0.4,1,0.6c0.2,0-1.2,1.4-2,1.7c0,0,0,0,0,0.2c0.6,0.6,1.4,0.2,2,0.6c-0.4,1-0.6,1-1.2,1.9c0.2,0.4,2.2-0.2,2.6,0 C183.3,75.7,180.2,75.9,179.8,74.2z M172.3,81.8c-0.2,0-0.7-0.2-1.3,0c0.4-0.7,1.1-0.8,1.8-0.8c0.1,0,0.1,0,0.1,0 c0,0.2-0.2,0.3-0.3,0.6C172.4,81.6,172.3,81.8,172.3,81.8z M173,87.7c0.3,0.1,0.6,0.6,0.6,0.9c0,0.1-0.1,0.2-0.1,0.2 c-0.3,0.3-1.6,0.3-2,0.1c0.6-0.2,1-0.6,1.3-1.1C172.9,87.8,173,87.7,173,87.7z M194.1,79.8c0.4-0.6,1.4-1,1.8-0.4 c-0.1,0.2-0.2,0.5-0.4,0.7c0,0.1-0.1,0.1-0.2,0C194.9,80,194.5,79.8,194.1,79.8z M200.3,87.1c0.6-0.6,0.8-1,1-1.5 c0.2-0.2,0.5,0,0.8,0.2C202.7,86.2,200.9,87.3,200.3,87.1z M211.9,81c0.4,0.2,0.9,0.8,1,1c0.1,0.2,0.2,0.7-0.2,1 c-0.8,0.4-2.4,1.9-0.8,3.7c-2.2-0.4-1.6-1.9-1-3.3c0.1-0.2-0.1-0.3-0.2-0.2c-1.4,1.3-1,2.7-1.6,3.9c-0.8-1-0.4-2.5,0.2-3.3 c0,0-0.1-0.1-0.2,0c-1,0.6-1.6,2.3-2,3.3c-0.7-0.7-0.1-2.6,0-2.7c0,0,0-0.1-0.2,0c-1,0.8-1.4,1.9-1.8,3.1 c-0.8-0.6-0.6-1.5-0.6-2.3c-0.6,0.4,0,2.2-1.5,2.7c0,0-0.1,0-0.2,0c-0.2-0.2,0-0.4,0.1-0.5c0.3-0.4,0.4-0.9,0.2-1.2 c-0.1-0.1-0.5-0.4-0.6-0.5c-0.7-0.6-1.5-0.8-2.2-0.8c-0.8,0.1-1.8,0.8-2.4,1.7c-0.2,0.2-0.6,0.3-1,0.2c-0.8-0.2-1.6-1.6-0.8-2.1 c0.4-0.2,0.6,0.4,1.2,0.2c0.3-0.2,0.4-1.2-0.3-1.4c-0.2,0-0.4,0-0.6,0c-0.4,0.1-0.6,0.5-0.8,0.3c-0.1-0.1-0.1-0.1-0.2-0.3 c-0.1-0.6,0.1-1.8,0.8-1.8c0.2,0,0.3,0.2,0.3,0.2c0.2,0.3,0.3,0.4,0.5,0.4c0.9,0,0.8-0.6,0.7-1.1c0-0.1-0.1-0.3-0.3-0.3 c-0.4,0-1,0.2-1.2-0.2c-0.4-0.6,0.4-1.5,1-1.5c0.8,0,0.6,1,1.4,1.2c0.4,0.2,1.1,0.2,1.6,0.6c0.2,0.1,0.3,0.2,0.4,0.4 c0.4,1.8,3,1.5,4.4,1.3c2.8-0.4,4.4-2.3,2.4-3.6c-1.2-0.8-3-0.2-4.4-0.4c-2.2-0.4-2.6-1.3-2-2.9c0.2-0.4,1.2-0.6,1.4-0.8 c0.3-0.1,1.4-1,1.4-0.6c-0.4,0.5-0.5,1.4-0.9,2.1c0,0.1-0.1,0.2-0.1,0.3c0.1,0.2,0.2,0.2,0.4,0.1c1.2-1.2,1.2-1.5,2.8-2.5 c0.6,1.3,2.2,1.3,2.6,0c1,1,2.3,2.2,2.2,2.5c-0.2,0.8-0.6,1.9-0.6,2.9C210.4,80.3,211.3,80.7,211.9,81z M215.1,83.7 c0.2-0.4,1.6-1.4,2.4-0.8c-0.2,0.2-0.4,1-0.4,1C216.3,83.4,215.9,83.4,215.1,83.7z M216.5,89.8c0.6,0,1.2,0,1.6-0.4 c0.2,0.2,0.4,0.4,0.6,0.6C218.3,90.4,216.7,90.4,216.5,89.8z M224.5,87.6c0,0.3,0.1,0.9-0.6,1.2c0-1,0-1.1-0.8-1.7 c-0.2-0.2,0.8,0,1.3,0.3C224.4,87.5,224.5,87.6,224.5,87.6z M228.7,82.4c-0.3,0.2-0.7,0.3-1.3,0.4c-0.7,0-1.5-0.2-1.8,0 c0.2,0.8,2.2,0.6,3.4,0.6c-1,1-2.2,1-3.6,0.8c0,0,0,0.2,0.4,0.4c0.8,0.3,1.7,0.4,2.4,0.6c-0.6,0.2-1.2,0.6-3.2,0.2 c0.2,0.6,1.8,1.2,2.6,1.4c-0.6,0.4-1.3,0.6-1.8,0.6c-1,0-3.8-1.3-4.7,0.6c-0.1,0.2-0.1,0.3,0,0.4c0,0.1,0.1,0.2,0.2,0.3 c0.1,0.2,0,0.5-0.1,0.6c-0.3,0.7-1.4,0.6-1.9,0.2c-0.1-0.1-0.2-0.2-0.3-0.4c-0.1-0.3-0.2-0.6,0-0.9c0.1-0.1,0.2-0.1,0.3,0 c1.3,0.2,0.7-1.4-0.4-1c-0.3,0.2-0.6,0.5-1,0.6c-0.1,0-0.2,0-0.4-0.1c-0.4-0.5-0.4-1.7,0.1-1.8c0.2,0,0.3,0.1,0.3,0.1 c0.4,0.5,1.5,0,1.2-0.7c-0.1-0.1-0.1-0.3-0.2-0.3c-0.3-0.3-1.2-0.1-0.9-1c0.2-0.4,0.6-1.2,1.2-1.2c0.5,0,0.6,0.6,0.8,1 c0.1,0.2,0.6,1,1.2,1c1.6,0,2.8-2.3,2.2-3.9c-0.8-2.1-3.4-1.3-5.4-1.7c-5.1-0.8-6.5-3.8-9.7-7.6c0,0-0.2-0.2-0.3-0.2 c-0.3-0.1-0.5-0.1-0.8,0.1c-2.4,1.2-4.2,2.1-6.8,3.3c-0.4,0.2-0.8,0.4-1.4,0.6c0.4-0.6,1.2-1.6,1.6-2.1c-1.6,0.7-2.8,1.9-5,2.9 c-0.2,0-0.4,0-0.4-0.2c0.2-0.6,0.6-0.8,1-1.9c-0.2-0.2-0.3,0-0.6,0.2c-2.2,1.6-3.4,2.9-5.4,2.5c0,0.4,0.8,1.1,2,1.5 c-0.6,0.6-2.6,0.4-3.6-0.2c-0.2,1,1.6,1.5,2,1.8c-1,0.8-3,0-4-0.4c-0.2,0,0,0.2,0,0.2c0.6,1.2,3,1.3,4,1.3 c-1.6,0.8-3.2,1.2-5,0.2c-0.4,0.6,1.6,1.7,2,1.9c0,0.4-2.2,0.2-3.6-1c-0.2,0.6,1.6,1.7,1.8,1.9c-0.8,0.8-2.4,0.1-3-0.2 c-0.2-0.1-0.3-0.1-0.3-0.1c0,0-0.1,0-0.1,0.1c0.2,0.8,1.2,1.2,2,1.5c-1.6,0.8-2.8-0.2-3.4-0.8c-0.4,0-1.8,1.4-1.8,1.6 c-0.2,0.4,0,0.8-0.2,1.3c-0.2,0.3-0.5,1.1-0.7,1.2c0,0-0.2,0-0.2-0.1c-0.2-0.2,0.1-1.1-0.3-1.3c-1.8-0.8-1.6,1-2.4,1.5 c-0.8,0.4-2-0.9-2-1.3c0-0.2,0.2-0.6,0.6-0.4c0,0,0.2,0.1,0.2,0.2c0.1,0,0.2,0,0.2,0c0.4-0.1,0.4-0.4,0.4-0.6c0-0.6-0.2-1-1-0.8 c-0.2,0.1-0.2,0.4-0.5,0.4c-0.1,0-0.2,0.1-0.3,0c-0.6-0.6-0.6-1.9-0.2-2.1c0.6-0.2,0.8,0.6,1.4,0.4c0.4-0.2,0.4-1.3,0-1.5 c-0.4-0.2-0.9,0.4-1.3,0.1c-0.1-0.1-0.1-0.2,0-0.3c0.2-0.7,0.8-1.6,1.1-1.6c0.5,0,0.6,1,1.3,1.5c0.1,0.1,0.7,0.4,0.9,0.5 c1.3,0.6,2.8,0.4,3.7,0.1c3.6-1.6,2-4.1,3.2-4.6c2.6-1.1,1.4-2.3,2.4-2.9c0.2,0.2,0.2,1.2,0.8,1.4c0.2-1.2,0.4-1.9,1.6-1.5 c0.4,0.6,0.8,1.1,1.4,1.5c0.2,0,0.2-1.4,0.2-1.9c1,0.8,2.6,0.8,2.4,0.4c-0.2-0.2-1-1.2-1-1.6c1,0.6,2.6,0.2,2.4-0.2 c-0.2-0.2-0.4-0.4-0.4-0.6c0.2-0.4,1-0.4,1.4-0.4c0-0.8-0.8-1.8,0-2.7c0.6,0.4,0.8,0.8,1.6,0.8c0-0.6-0.2-1.3,0.2-1.9 c1.8,0,3.2,0,4.4-0.2c2.6-0.6,4.6-1.5,7.4-2.1c0.8-0.2,1.4-0.4,2.2-0.6c1.1,0,2.3,0.9,2.9,1.8c0.2,0.2,0.7,1.2,0.9,1.4 c0.7,0.9,1.5,1.7,2.5,2.4c0.8,0.6,1.6,1.3,2,2.3c0.4,0.6,0.5,1.5,0.9,2.2c0.2,0.4,0.6,1,1.1,1.3c2.1,1,3.9-1.5,4.8-0.6 c0.1,0.1,0.1,0.2,0.2,0.2c0,0.1,0.1,0.2,0.1,0.2c0.2,0.1,0.3,0.1,0.3,0.1c1.4,0,2.4-0.2,3.6-0.8c0.2,0-1.6,2.1-3.6,2.3 c0.4,0.4,3.2-0.2,3.8-0.6c-0.4,1.2-2,1.9-3.6,1.8l-0.1,0c0,0,0,0.2,0.4,0.3c0.8,0.2,2.2,0.3,2.7,0.3c0,0.4-3,0.4-3,1 c2.4-0.4,2.6,0.4,3.6,0C229.5,81.8,229.2,82.1,228.7,82.4z"></path> </g> <g id="Blue_19_"> <path class="st7" d="M202.1,85.8c-0.2-0.1-0.6-0.4-0.8-0.2c-0.2,0.6-0.4,1-1,1.5C200.9,87.3,202.7,86.2,202.1,85.8z"></path> <path class="st7" d="M176.9,54c0.1,0.1,0.2,0.2,0.3,0.3c0.3,0.1,0.6-0.1,0.9-0.1c-0.4-0.8-1.2-1-2-0.8 C176.5,53.5,176.7,53.7,176.9,54z"></path> <path class="st7" d="M217.5,82.9c-0.8-0.6-2.2,0.4-2.4,0.8c0.8-0.2,1.2-0.2,2,0.2C217.1,83.9,217.3,83.1,217.5,82.9z"></path> <path class="st7" d="M174.1,56c0,0.1,0.2-0.2,0.4-0.4c0.1-0.2,0.3-0.3,0.2-0.3c-0.2-0.2-1.2-0.6-1.8-0.4 C172.6,55.1,173.6,54.9,174.1,56z"></path> <path class="st7" d="M189.3,61.6c-1.2,1.2-0.8,3.5-0.4,3.5c0.4,0.2,2.2-1.7,1.4-3.3c-0.2-0.4-0.6,1.5-1,2.1h-0.2 c0-0.8,0.2-1.5,0.4-2.3C189.5,61.6,189.3,61.5,189.3,61.6z"></path> <path class="st7" d="M195,85.6c-0.6-0.1-1.7,0.8-1.7,1.2c0.6-0.2,0.8-0.4,1.8-0.4h0.2c-0.2-0.4-0.2-0.4-0.2-0.7 C195.1,85.6,195.1,85.6,195,85.6z"></path> <path class="st7" d="M172.7,81c-0.6,0-1.3,0-1.8,0.8c0.6-0.2,1.1,0,1.3,0c0.1,0,0.2-0.1,0.2-0.2C172.6,81.3,172.7,81.1,172.7,81 C172.8,81,172.8,81,172.7,81z"></path> <path class="st7" d="M173,87.7c0,0-0.1,0-0.1,0.1c-0.4,0.5-0.8,0.9-1.3,1.1c0.4,0.2,1.6,0.2,2-0.1c0,0,0.1-0.1,0.1-0.2 C173.6,88.3,173.3,87.8,173,87.7z"></path> <path class="st7" d="M195.6,80.1c0.2-0.2,0.2-0.5,0.4-0.7c-0.4-0.6-1.4-0.2-1.8,0.4c0.4,0,0.8,0.2,1.2,0.4 C195.4,80.2,195.5,80.2,195.6,80.1z"></path> <path class="st7" d="M170.4,85.6c0.7-0.4,1-0.4,1.4-0.3c0,0,0.2,0,0.2,0v-0.7C171.7,84.4,170.6,84.8,170.4,85.6z"></path> <path class="st7" d="M194.7,82.3c-0.6-0.2-1.6,0.2-1.8,0.8c0.4-0.2,0.7-0.2,1.3,0c0,0,0.2,0.1,0.3,0.1c0.2,0.1,0.3,0.1,0.2-0.1 C194.5,82.3,194.9,82.3,194.7,82.3z"></path> <path class="st7" d="M172.1,57.4c-0.2,0.2,0.4,1.6,0.9,1.6c0,0,0.1,0,0.1-0.1c0-0.2,0.2-0.5,0.2-0.7 C172.4,58,172.4,57.4,172.1,57.4z"></path> <path class="st7" d="M216.5,89.8c0.2,0.6,1.8,0.6,2.2,0.2c-0.2-0.2-0.4-0.4-0.6-0.6C217.7,89.8,217.1,89.8,216.5,89.8z"></path> <path class="st7" d="M216.3,86.3c-0.6,0-1.2,1.2-1.2,1.5c0.4-0.2,1.8-0.2,1.6-0.4C216.5,87.1,216.3,86.7,216.3,86.3z"></path> <path class="st7" d="M224.4,87.4c-0.5-0.3-1.5-0.5-1.3-0.3c0.8,0.6,0.8,0.8,0.8,1.7c0.7-0.3,0.7-0.9,0.6-1.2 C224.5,87.6,224.4,87.5,224.4,87.4z"></path> </g> </g> <path class="st2" d="M213.8,9.9c-3.6,0.2-5.3-2.1-8.4-2.2c-1.3,0-3.1,0.3-5.4,2.2c-2.3-1.8-4.1-2.2-5.4-2.2 c-3.1,0.1-4.8,2.4-8.4,2.2c-0.5,0-0.9-0.1-1.3-0.2v12.1c0.4,0.1,0.9,0.2,1.3,0.2c3.6,0.2,5.3-2.1,8.4-2.2c1.3,0,3.1,0.3,5.4,2.1v0 c0,0,0,0,0,0c0,0,0,0,0,0v0c2.3-1.8,4.1-2.2,5.4-2.1c3.1,0.1,4.8,2.4,8.4,2.2c0.5,0,0.9-0.1,1.3-0.2V9.7 C214.7,9.8,214.3,9.9,213.8,9.9z"></path> <g> <rect x="182.3" y="23" class="st8" width="19" height="1.4"></rect> <rect x="182.3" y="9.6" class="st8" width="1.4" height="14.8"></rect> </g> <g> <rect x="198.7" y="23" class="st8" width="19" height="1.4"></rect> <rect x="216.3" y="9.6" class="st8" width="1.4" height="14.8"></rect> </g> <g> <polygon class="st8" points="180,19.7 182.4,18.4 182.4,21.1 "></polygon> <g> <polygon class="st8" points="180,14.3 182.4,12.9 182.4,15.6 "></polygon> </g> </g> <g> <polygon class="st8" points="220,19.7 217.6,18.4 217.6,21.1 "></polygon> <g> <polygon class="st8" points="220,14.3 217.6,12.9 217.6,15.6 "></polygon> </g> </g> <path class="st9" d="M215.1,8.4l-0.3,0.1c-0.4,0.1-0.7,0.1-1.1,0.2c-1.6,0.1-2.8-0.4-4-1c-1.3-0.6-2.5-1.1-4.2-1.2 c0,0-0.1,0-0.1,0c-1.8,0-3.5,0.6-5.3,1.8c-1.8-1.2-3.5-1.8-5.3-1.8c0,0-0.1,0-0.1,0c-1.7,0-3,0.6-4.2,1.2c-1.3,0.6-2.4,1.1-4,1 c-0.4,0-0.7-0.1-1.1-0.2l-0.3-0.1V9l0.2,0c0.4,0.1,0.8,0.2,1.2,0.2c1.8,0.1,3-0.5,4.3-1.1c1.2-0.5,2.4-1.1,4-1.1c0,0,0.1,0,0.1,0 c1.7,0,3.4,0.6,5.1,1.8L200,9l0.2-0.1c1.7-1.2,3.4-1.8,5.1-1.8c0,0,0.1,0,0.1,0c1.6,0,2.8,0.6,4,1.1c1.2,0.6,2.4,1.1,3.9,1.1 c0.1,0,0.3,0,0.4,0c0.4,0,0.8-0.1,1.2-0.2l0.2,0L215.1,8.4L215.1,8.4z"></path> <path d="M243.4,5.5v89.9c0,3.1-1.9,6-4.7,7.3L200,121.1l-38.7-18.5c-2.9-1.4-4.7-4.2-4.7-7.3V5.5H243.4 M245.4,3.5h-90.8v91.8 c0,3.9,2.3,7.4,5.8,9.1l39.6,18.9l39.5-18.8c3.6-1.7,5.9-5.2,5.9-9.1L245.4,3.5L245.4,3.5z"></path> <g> <path class="st6" d="M198.6,138.8c-0.7,0-2-0.1-2.8,0c-0.1,0-0.2-0.2-0.2-0.2c0.2-0.3,0.5-0.6,0.5-0.9c0-0.9,0-1.7,0-2.6 c0-0.3-0.3-0.5-0.6-0.8c0-0.1,0.2-0.1,0.2-0.1c0.9,0,2,0.1,2.7,0c0.3,0,0.5-0.1,0.7,0.1c0,0.4,0.2,0.7,0.1,1 c-0.4,0.1-0.4-0.3-0.6-0.4c-0.5-0.3-1.1-0.3-1.7-0.3c-0.1,0-0.2,0.1-0.1,0.2c0,0.3,0,0.7,0,1.1c0.5,0,1.1,0.1,1.3-0.2 c0.2-0.1,0.2-0.1,0.3,0c0.1,0.3,0,0.4,0.1,0.5c0,0.2,0,0.5-0.1,0.7c-0.2-0.1-0.3-0.6-0.7-0.5c-0.2,0-0.5-0.1-0.8,0.1 c-0.1,0.5-0.2,1,0,1.6c0.4,0.4,1.4,0.4,1.8-0.1c0.2-0.2,0.2-0.6,0.5-0.7c0.1,0,0.1,0.3,0.1,0.3 C199.3,138.1,199.2,138.8,198.6,138.8L198.6,138.8z"></path> <path class="st6" d="M201.8,138.8c-0.3,0-0.6,0-0.9-0.1c-0.1-0.1,0.1-0.2,0.2-0.3c0.4-0.7,0.2-2.5,0.2-3.7 c-0.2-0.1-0.8,0.1-1,0.2c-0.2,0.2-0.2,0.4-0.5,0.6c-0.3-0.1-0.1-0.5-0.1-0.7c0.1-0.2,0-0.4,0.1-0.5c0.1-0.2,2.8-0.1,3.9-0.1 c0.4,0,0.2,0.4,0.3,0.6c0,0.3,0.2,0.6-0.2,0.7c-0.3-0.1-0.2-0.4-0.4-0.5c-0.1-0.3-0.6-0.3-0.9-0.3c-0.2-0.1-0.2,0.2-0.2,0.2 c-0.1,1-0.1,2.3,0,3.2c0,0.2,0.4,0.4,0.4,0.6C202.6,138.9,202.2,138.8,201.8,138.8L201.8,138.8z"></path> </g> <g> <path class="st6" d="M193.1,131.7c-0.4,0-0.7,0.4-0.8,0.7c-0.4,0.6-0.7,1.1-1.1,1.7c-0.4,0.8-0.7,1.7-1.6,2c-0.5,0.1-0.7,0.2-1,0 c-1.2-0.1-2.9-1.1-3-2.1c-0.1-0.8,0.5-1.6,1-2.4c0.4-0.8,1.2-1.5,1-2.5c-0.1-0.2-0.3-0.2-0.1-0.3c0-0.2,0.3-0.1,0.5,0 c0.3,0.2,1,0.4,1.3,0.7c0.1,0.2,0.7,0.2,0.5,0.5c-0.4,0.1-0.9,0.2-1.1,0.5c-0.8,1.1-1.3,2.2-1.7,3.2c-0.2,0.5,0.2,1,0.5,1.4 c0.3,0.2,1,0.4,1.5,0.5c1.2,0,2-2.1,2.4-3c0.2-0.4,0.5-1.1,0.2-1.8c-0.1-0.2,0-0.2,0-0.2c0.7,0.2,1.1,0.4,1.8,0.7 C193.3,131.5,193.3,131.7,193.1,131.7L193.1,131.7z"></path> <path class="st6" d="M186.5,128.5c-0.9,0.6-1.6,1.6-2,2.6c-0.4,0.6-0.9,1.4-1.1,2c-0.2,0.1-0.2,0.3-0.4,0.4c-0.2,0-0.5,0-0.7-0.2 c0,0-0.1-0.2-0.1-0.3c-0.1-0.4-0.1-1.7-0.2-2.8c-0.1-0.7-0.2-1.5-0.2-2.3c-0.1-0.2-0.1-0.7-0.3-0.5c-0.6,0.8-0.8,1.2-1.3,2.2 c-0.2,0.6-0.7,1.4-0.6,1.9c0.1,0.2,0.3,0.4,0.1,0.5c-0.2,0.1-0.5,0-0.7-0.2c-0.3-0.2-0.8-0.4-1.1-0.5c0-0.3,0.2-0.3,0.4-0.4 c0.7-0.1,1-1.2,1.4-1.7c0.4-0.9,0.6-1.2,1.1-2c0.2-0.1,0.4-0.5,0.2-0.6c-0.5-0.2-0.9,0.1-1.2,0.2c-0.2,0-0.4,0-0.2-0.2 c0-0.2,0.2-0.3,0.6-0.4c0.3-0.1,0.9-0.4,1.4-0.2c0.5,0.2,1,0.4,0.9,0.8c0.5,1.4,0.5,2.8,0.5,4.3c0.1,0.4-0.1,0.5,0.1,0.8 c0.6-0.7,0.9-1.5,1.3-2.3c0.1-0.7,0.5-1.4,0.1-2c0-0.2,0.2-0.1,0.2-0.1c0.8,0.2,1.5,0.6,2.1,1.1 C186.9,128.5,186.7,128.5,186.5,128.5L186.5,128.5z"></path> <path class="st6" d="M177.3,130.8c-0.5-0.2-1.3-0.6-1.9-0.9c-0.2,0-0.3-0.2-0.2-0.3c0.2-0.2,0.4,0,0.4,0c0.7-0.4,0.6-1.1,0.7-1.8 c-0.6-0.4-1.4-0.8-1.9-1c-0.6,0.6-1,1.4-0.9,2c-0.2,0.3-0.5,0-0.7-0.1c-0.3-0.2-0.6-0.4-0.9-0.6c-0.2,0-0.3,0-0.5-0.2 c0.2-0.3,0.5,0,0.9-0.2c1.5-1.2,2.6-2.3,3.8-3.5c0.2-0.1-0.5-0.2-0.8-0.2c-0.4,0-0.5,0.3-0.7,0.1l0-0.2c0.7-0.4,1.6-0.8,2.4-0.4 c0.8,0.4,0.9,1.4,0.8,2.2c-0.1,0.5-0.4,3.1-0.4,3.9c0,0.3,0.1,0.7,0.2,1C177.5,130.6,177.4,130.8,177.3,130.8L177.3,130.8z M176.2,127c-0.3,0-1.1-0.3-1.5-0.6c0.4-0.6,1.2-1,1.7-1.6C176.6,124.9,176.2,126.9,176.2,127L176.2,127z"></path> <path class="st6" d="M173.7,122.8c-0.3-0.2-0.5-0.4-0.8-0.3c-0.4,0.3-0.8,1.2-1.1,1.7c-0.5,0.9-0.9,1.9-1.3,2.6 c0,0.2,0.3,0.5,0.1,0.8c-0.2,0-0.3,0-0.3,0c-0.4-0.4-0.9-0.6-1.4-0.8c-0.1-0.2-0.3-0.2-0.1-0.3c0.4-0.1,1.1-0.4,1.3-1 c0.4-0.8,1.1-1.7,1.5-2.6c-0.2,0-0.2,0-0.2,0c-1.4,0.7-2.7,1.7-4.1,2.7c-0.2,0.1-0.3,0-0.3,0c-0.1-0.8,0-1.3,0.2-2.8 c-0.1-0.2,0-1.8-0.1-2c-0.6,0.6-1,1.5-1.3,2.3c-0.4,0.5-0.8,1.2-0.4,1.9c0,0,0,0.2-0.2,0.2c-0.6-0.4-1.3-0.6-1.9-1 c0-0.2,0,0,0-0.2c0.9-0.1,1.5-1.1,2.1-1.7c0.4-0.8,1-1.5,1.5-2.5c0-0.2-0.5-0.4-0.6-0.4c-0.3-0.2-0.7,0.1-1,0.2 c-0.1-0.2-0.1-0.4,0-0.3c0.4-0.4,1.1-0.7,1.8-0.4c0.7,0.2,1.3,0.8,1.4,1.3c0,1.3-0.1,2.6-0.1,3.9l0,0.2c1.5-1,2.8-2.2,4-2.5 c0.9-0.1,1.2,0.1,1.3,0.3c0.3,0.2,0.5,0.4,0.4,0.5C173.8,122.7,173.7,122.6,173.7,122.8L173.7,122.8z"></path> </g> <g> <path class="st6" d="M236.3,124c-0.9,0.4-2.4,1.1-3.3,1.7c-0.2,0-0.4-0.1-0.4-0.1c0.1-0.5,0.2-1,0-1.4c-0.6-1-1.1-2.1-1.7-3.1 c-0.2-0.3-0.7-0.4-1.2-0.6c0-0.2,0.1-0.2,0.1-0.2c1.1-0.6,2.4-1.1,3.3-1.7c0.3-0.2,0.6-0.4,0.9-0.3c0.2,0.4,0.7,0.7,0.8,1.1 c-0.4,0.4-0.7-0.1-1-0.2c-0.8,0-1.6,0.4-2.2,0.7c-0.2,0-0.1,0.2,0,0.3c0.2,0.4,0.5,0.9,0.7,1.3c0.6-0.3,1.4-0.5,1.5-1.1 c0.1-0.2,0.1-0.2,0.3-0.2c0.4,0.3,0.2,0.4,0.4,0.6c0.2,0.3,0.4,0.6,0.3,0.9c-0.3,0-0.7-0.5-1.2-0.2c-0.3,0.2-0.6,0.2-0.9,0.6 c0.2,0.6,0.5,1.3,1.1,1.9c0.7,0.2,1.9-0.4,2.1-1.2c0.1-0.3-0.1-0.9,0.2-1.1c0.2,0,0.4,0.3,0.4,0.3 C236.6,122.8,236.9,123.7,236.3,124L236.3,124z"></path> <path class="st6" d="M229.9,127.1c-0.3,0.2-0.8,0.4-1.1,0.4c-0.2-0.1,0-0.3,0.1-0.5c0-1.1-1.4-3.1-2.2-4.6c-0.3,0-0.9,0.6-1,0.9 c-0.1,0.3,0.1,0.6-0.2,1c-0.5,0.1-0.4-0.6-0.6-0.7c0-0.3-0.2-0.4-0.2-0.6c0-0.3,3.3-1.8,4.5-2.5c0.5-0.2,0.5,0.4,0.7,0.5 c0.2,0.3,0.5,0.6,0.3,0.9c-0.5,0.1-0.5-0.3-0.9-0.4c-0.4-0.3-1,0-1.3,0.2c-0.3,0-0.1,0.3-0.1,0.3c0.5,1.2,1.4,2.8,2.2,3.8 c0.2,0.3,0.7,0.2,0.9,0.5C230.8,126.8,230.3,126.9,229.9,127.1L229.9,127.1z"></path> <path class="st6" d="M225.7,128.9c-1.8-0.9-3.3-1.9-5.1-2.8l0,0c0.7,1.3,1,2.7,2.3,3.6c0,0.3,0.5,0.1,0.4,0.4 c-0.1,0.2-0.6,0.2-0.8,0.4c-0.5,0.1-0.7,0.6-1,0.1c0.3-1.3-0.7-2.4-1.1-3.6c-0.2-0.4-0.4-0.9-0.7-1.2c-0.6,0.1-0.9,0.9-0.9,1.4 c-0.1,0.2-0.5-0.1-0.7-0.1c-0.2-0.3-0.5-0.5-1-0.3c-0.5,0.2-0.9,0.4-1.4,0.6c0.2,0.6,0.5,1.2,0.9,1.8c0,0.2,0.2,0,0.2,0 c0.6-0.2,1.1-0.5,1.2-0.9l0.2,0c0.4,0.3,0.6,0.6,0.8,1c-0.3,0-0.5-0.1-0.7-0.1c-0.5,0.2-0.9,0.3-1.4,0.7c0.2,0.6,0.7,1.3,1.1,1.9 c0.2,0.3,0.7,0.1,1.1,0c0.9-0.4,1.3-1.4,1.1-2.3c0.2,0,0.3-0.2,0.3,0c0.4,0.4,0.4,0.9,0.7,1.3c0,0.3,0.2,0.4-0.1,0.5 c-1.2,0.6-2.1,1.1-3.3,1.7c-0.3,0-0.5,0.2-0.8,0.4c-0.2-0.1-0.2,0-0.2-0.1c-0.2,0,0-0.2,0-0.3c0.2-1.1-0.4-1.8-1.1-3.3 c-0.2-0.3-0.9-1.6-1.4-1.5c-0.2,0-0.1,0.2-0.1,0.3l0,0.3c-0.2-0.2-0.5-0.1-0.8,0.1c0,0.2,0,0.2,0,0.2c0.1,0.6,0.3,1.2,0.7,1.8 c0.6,0.9,0.9,2.1,2,2.7c0.2,0.1,0,0.2-0.1,0.3c-0.5,0.2-1.1,0.3-1.5,0.7c-0.4-0.3-0.1-0.6-0.1-0.9c-0.1-0.6-0.3-1.1-0.7-1.6 c-0.3-0.8-0.5-1.2-0.9-1.9c-0.1,0.3-0.2,0.7-0.2,1.1c0,1.1,0,2.2,0.1,3.5c0,0-0.2,0-0.1,0.2c-0.2,0-0.3-0.1-0.4-0.3 c-1.1-0.7-2.6-2.2-3.8-2.8c0,0,0.1,0.5,0.2,0.4c0.6,1.2,1,2.2,1.7,3.2c0.2,0.3,0.5,0.4,0.9,0.5c-0.2,0,0,0.2-0.1,0.2 c-0.3,0.2-0.4,0.2-0.8,0.4c-0.3,0-0.7,0.6-0.9,0.3c0.4-0.8-0.2-1.8-0.5-2.4c-0.5-0.9-0.9-1.6-1.3-2.5l-0.2,0 c-0.3,0.2-0.2,0.7-0.3,1.2c-0.1,0.2-0.1,0.2-0.3,0.2c0-0.3-0.1-0.8,0-1.1c-0.1-0.5,0.2-1,0.7-1.2c0.4-0.2,1.2-0.5,1.6,0 c1.1,0.8,1.8,1.7,2.9,2.3l0.1-0.2c-0.2-1.1-0.1-2.2-0.1-3.1c-0.1-0.5,0-1,0.6-1.3c0.2-0.2,0.6-0.2,1-0.1c0.1-0.2,0.4-0.5,0.6-0.5 c1.2-0.6,2.3-1.2,3.5-1.7l0.2,0c0.2,0.3,0.2,0.6,0.6,0.6c0.1-0.3,0.1-0.6,0.3-1c0.4-0.5,1.4-0.8,2.1-0.4c1.2,0.3,3.3,1.9,4.2,2.1 c-0.5-0.9-0.9-1.6-1.3-2.4c-0.4-0.3-0.8-0.8-1.3-0.9c-0.2,0-0.2-0.1-0.2-0.1c0.6-0.2,1.2-0.6,1.8-0.9c0.4,0.1-0.1,0.5,0,0.8 c0.3,1.2,1,2.2,1.4,3.3c0.4,0.4,0.7,1,0.9,1.5C226.7,128.7,225.9,129.1,225.7,128.9L225.7,128.9z"></path> </g> <g> <path d="M189.9,15.4c0,0.7-0.6,1-1.3,1c-0.5,0-1-0.3-1.2-0.5c0,0,0-0.1,0-0.1l0.3-0.3c0,0,0.1,0,0.1,0c0.2,0.2,0.5,0.3,0.8,0.3 s0.5-0.2,0.5-0.4c0-0.6-1.7-0.4-1.7-1.6c0-0.6,0.5-1,1.1-1c0.4,0,0.8,0.2,1.1,0.5c0,0,0,0.1,0,0.1l-0.3,0.3c0,0-0.1,0-0.1,0 c-0.2-0.2-0.4-0.3-0.7-0.3c-0.3,0-0.5,0.2-0.5,0.4C188.2,14.4,189.9,14.1,189.9,15.4z"></path> <path d="M194,15.8c0,0,0,0.1,0,0.1c-0.3,0.3-0.8,0.5-1.3,0.5c-1,0-1.9-0.8-1.9-1.8s0.8-1.8,1.9-1.8c0.5,0,0.9,0.2,1.3,0.5 c0,0,0,0.1,0,0.1l-0.3,0.4c0,0-0.1,0-0.1,0c-0.2-0.2-0.5-0.3-0.8-0.3c-0.6,0-1.1,0.5-1.1,1.1c0,0.6,0.5,1.1,1.1,1.1 c0.3,0,0.6-0.1,0.8-0.3c0,0,0.1,0,0.1,0L194,15.8z"></path> <path d="M195.1,12.8h0.6c0,0,0.1,0,0.1,0.1v3.3c0,0,0,0.1-0.1,0.1h-0.6c0,0-0.1,0-0.1-0.1L195.1,12.8 C195.1,12.9,195.1,12.8,195.1,12.8z"></path> <path d="M199.1,15.8v0.4c0,0,0,0.1-0.1,0.1h-1.9c0,0-0.1,0-0.1-0.1v-3.3c0,0,0-0.1,0.1-0.1h1.9c0,0,0.1,0,0.1,0.1v0.4 c0,0,0,0.1-0.1,0.1h-1.3v0.8h1.2c0,0,0.1,0,0.1,0.1v0.4c0,0,0,0.1-0.1,0.1h-1.2v0.9L199.1,15.8C199.1,15.7,199.1,15.8,199.1,15.8 z"></path> <path d="M203.2,12.9v3.3c0,0,0,0.1-0.1,0.1h-0.6c0,0-0.1,0-0.1,0l-1.4-2.4v2.3c0,0,0,0.1-0.1,0.1h-0.6c0,0-0.1,0-0.1-0.1v-3.3 c0,0,0-0.1,0.1-0.1h0.6c0,0,0.1,0,0.1,0l1.4,2.4v-2.3c0,0,0-0.1,0.1-0.1L203.2,12.9C203.2,12.8,203.2,12.9,203.2,12.9z"></path> <path d="M206.7,12.9v0.4c0,0,0,0.1-0.1,0.1h-0.8v2.8c0,0,0,0.1-0.1,0.1h-0.6c0,0-0.1,0-0.1-0.1v-2.8h-0.8c0,0-0.1,0-0.1-0.1v-0.4 c0,0,0-0.1,0.1-0.1L206.7,12.9C206.6,12.8,206.7,12.9,206.7,12.9z"></path> <path d="M207.7,12.8h0.6c0,0,0.1,0,0.1,0.1v3.3c0,0,0,0.1-0.1,0.1h-0.6c0,0-0.1,0-0.1-0.1L207.7,12.8 C207.7,12.9,207.7,12.8,207.7,12.8z"></path> <path d="M212.5,16.3h-0.6c0,0-0.1,0-0.1-0.1l-0.2-0.6h-1.3l-0.2,0.6c0,0,0,0.1-0.1,0.1h-0.6c-0.1,0-0.1,0-0.1-0.1l1.3-3.3 c0,0,0-0.1,0.1-0.1h0.5c0,0,0.1,0,0.1,0.1L212.5,16.3C212.6,16.3,212.5,16.3,212.5,16.3z M211.4,15.1l-0.5-1.4l-0.5,1.4H211.4z"></path> </g> <g> <path class="st0" d="M200,45.4l-1.1-2.7l-2.7,1.1l1.2-2.6l-2.8-1.1l2.8-1.1l-1.2-2.6l2.7,1.1l1.1-2.7l1.1,2.7l2.7-1.1l-1.2,2.6 l2.8,1.1l-2.8,1.1l1.2,2.6l-2.7-1.1L200,45.4L200,45.4z"></path> </g> <g> <path class="st0" d="M199.9,106.9l-1.1-2.7l-2.7,1.1l1.2-2.6l-2.8-1.1l2.8-1.1l-1.2-2.6l2.7,1.1l1.1-2.7l1.1,2.7l2.7-1.1 l-1.2,2.6l2.8,1.1l-2.8,1.1l1.2,2.6l-2.7-1.1L199.9,106.9L199.9,106.9z"></path> </g> <g> <path class="st0" d="M234.2,77.1l-1.1-2.7l-2.7,1.1l1.2-2.6l-2.8-1.1l2.8-1.1l-1.2-2.6l2.7,1.1l1.1-2.7l1.1,2.7l2.7-1.1l-1.2,2.6 l2.8,1.1l-2.8,1.1l1.2,2.6l-2.7-1.1L234.2,77.1L234.2,77.1z"></path> </g> <g> <path class="st0" d="M166,77.1l-1.1-2.7l-2.7,1.1l1.2-2.6l-2.8-1.1l2.8-1.1l-1.2-2.6l2.7,1.1l1.1-2.7l1.1,2.7l2.7-1.1l-1.2,2.6 l2.8,1.1l-2.8,1.1l1.2,2.6l-2.7-1.1L166,77.1L166,77.1z"></path> </g> </g> <g> <path d="M136,191.2c-0.1,17.1-8.6,25.7-24.2,25.7c-15.4,0-24.4-6.9-24.4-22.8c0-7.1,0-11.1,0-16.1c0-9-1-16.3-1.3-20.2 c1.8,0.2,4.8,0.4,6.6,0.4c1.8,0,3.6-0.2,5.3-0.4c-0.8,7.9-1.1,18.5-1.1,29.5c0,15.8,2.9,24.8,17.6,24.8 c15.8,0,16.2-15.7,16.2-28.7c0-11.7-0.1-20.1-0.6-25.6c1.3,0.2,2.6,0.4,3.8,0.4c1.2,0,2.2-0.2,3.3-0.4 C136.7,164.1,136.1,178,136,191.2"></path> <path d="M190.3,186c-0.2,8.9-0.1,22.4,0,30.4c-0.6-0.2-1.4-0.2-2-0.2c-0.6,0-1.4,0.1-1.9,0.2c-12.1-14.3-25.8-29-39.3-43.3 c-0.2,4.7-0.2,10.6-0.2,18.1c0,10.2,0.3,21.4,0.7,24.6c-1.2-0.3-2.3-0.4-3.4-0.4c-1.2,0-2.3,0.2-3.5,0.4 c0.6-3.2,1.8-24.6,1.8-38.5c0-9-0.2-15.6-0.3-19.4c0.6,0.1,1.6,0.2,2.2,0.2c0.7,0,1.6-0.1,2.2-0.2c12.8,14,27.9,30.5,39.2,42.2 c0-14.1,0-33.4-0.7-41.7c1.1,0.2,2.2,0.4,3.3,0.4c1.1,0,2.1-0.2,3.2-0.4C191,166.5,190.4,178.8,190.3,186"></path> <path d="M211.4,217.2c-7.2,0-14.7-3.5-18.3-6.1c1.4-1.2,2-1.5,3.6-3.6c1.2-1.6,1.9-4.2,1.9-4.2c1.5,4.4,6,8.8,14.1,8.8 c8.1,0,13.8-6.1,13.8-11.8c0-14-30.7-7.6-30.7-26.9c0-10.4,9.2-16.2,21.3-16.2c6.5,0,11.9,2,15.8,4.6c-1.8,1.4-2,1.5-3.1,3.1 c-0.8,1.3-1.8,3.9-1.8,3.9c-1.6-3.9-5-7.5-11.5-7.5c-6.6,0-11.3,4.1-11.3,9.2c0,13.9,31.8,8.3,31.8,26.5 C236.8,211.2,226.6,217.2,211.4,217.2"></path> <path d="M295.3,215.9c-1.2-0.2-2.3-0.4-3.4-0.4c-1.2,0-2.3,0.3-3.5,0.4c-4-14.6-8.6-29.2-13.7-44.3h-0.2 c-3.1,9.5-10.5,30.6-14.6,44.3c-1.2-0.2-2.2-0.4-3.5-0.4c-1.1,0-2.3,0.3-3.4,0.4c-2.3-9-5.7-22.1-10.1-36.3 c-1.3-4.5-6.2-18.1-7.6-21.1c1.8,0.2,4.6,0.4,6.3,0.4s3.5-0.2,5.3-0.4c3.7,15.6,7.4,29.3,12.2,45.7h0.2 c3.7-11.6,12.4-37.5,14.5-45.7c1.1,0.2,2.2,0.4,3.3,0.4c1.1,0,2.2-0.2,3.3-0.4c1.9,8.2,11.2,35.9,14,45.7h0.2 c3.3-10.8,11.6-38.8,13.1-45.7c1,0.2,2.1,0.4,3.1,0.4c1.1,0,2.1-0.2,3.3-0.4C311.2,165.6,299.2,202.3,295.3,215.9"></path> </g> </g> </svg> 